# Blender v2.82 (sub 7) OBJ File: '26.blend'
# www.blender.org
mtllib 26.mtl
o Weapon26_Cube.003
v -0.043711 0.043711 0.273281
v -0.043711 0.043711 0.185858
v -0.043711 -0.043711 0.273281
v -0.043711 -0.043711 0.185858
v 0.043711 0.043711 0.273281
v 0.043711 0.043711 0.185858
v 0.043711 -0.043711 0.273281
v 0.043711 -0.043711 0.185858
v -0.035742 0.035742 0.134034
v -0.035742 -0.035742 0.134034
v 0.035742 0.035742 0.134034
v 0.035742 -0.035742 0.134034
v -0.035742 0.035742 -0.137207
v -0.035742 -0.035742 -0.137207
v 0.035742 0.035742 -0.137207
v 0.035742 -0.035742 -0.137207
v -0.062377 0.062377 -0.173431
v -0.062377 -0.062377 -0.173431
v 0.062378 0.062377 -0.173431
v 0.062378 -0.062377 -0.173431
v -0.040748 0.040748 -0.194130
v -0.040748 -0.040748 -0.194130
v 0.040748 0.040748 -0.194130
v 0.040748 -0.040748 -0.194130
v -0.089992 0.089992 -0.226213
v -0.089992 -0.089992 -0.226213
v 0.089992 0.089992 -0.226213
v 0.089992 -0.089992 -0.226213
v -0.026387 0.026388 -0.307975
v -0.026387 -0.026388 -0.307975
v 0.026388 0.026388 -0.307975
v 0.026388 -0.026388 -0.307975
v 0.054090 0.054090 -0.272365
v -0.054090 0.054090 -0.272365
v -0.054090 -0.054090 -0.272365
v 0.054090 -0.054090 -0.272365
v 0.193605 -0.026388 -0.438058
v 0.193605 0.026388 -0.438058
v 0.221307 0.054090 -0.402448
v 0.221307 -0.054090 -0.402448
v 0.284381 -0.026388 -0.507637
v 0.284381 0.026388 -0.507637
v 0.289315 0.054090 -0.402685
v 0.289315 -0.054090 -0.402685
v -0.095407 0.026388 -0.395590
v -0.095407 -0.026388 -0.395590
v -0.046772 -0.026388 -0.480457
v -0.046772 0.026388 -0.480457
v 0.121480 -0.026388 -0.542233
v 0.121480 0.026388 -0.542233
v -0.094782 0.026388 -0.834940
v -0.094782 -0.026388 -0.834940
v -0.042592 -0.026388 -0.810271
v -0.042592 0.026388 -0.810271
v 0.041141 -0.026388 -0.724449
v 0.041141 0.026388 -0.724449
v -0.092571 0.026388 -0.924414
v -0.092571 -0.026388 -0.924414
v -0.044726 -0.026388 -0.910464
v -0.044726 0.026388 -0.910464
v 0.024823 -0.026388 -0.836488
v 0.024823 0.026388 -0.836488
v -0.171120 0.026388 -0.342307
v -0.171120 -0.026388 -0.342307
v -0.179188 0.026388 -0.835060
v -0.179188 -0.026388 -0.835060
v -0.095142 0.026388 -0.581627
v -0.095142 -0.026388 -0.581627
v 0.081311 0.026388 -0.633341
v -0.045002 0.026388 -0.620112
v -0.045002 -0.026388 -0.620112
v 0.081311 -0.026388 -0.633341
v -0.202934 0.026388 -0.544646
v -0.202934 -0.026388 -0.544646
v -0.216355 0.013073 -0.167173
v -0.216355 -0.013073 -0.167173
v -0.276277 0.013073 -0.502970
v -0.223181 0.013073 -0.878509
v -0.223181 -0.013073 -0.878509
v -0.276277 -0.013073 -0.502970
v -0.103785 0.026388 -1.074097
v -0.103785 -0.026388 -1.074097
v -0.072333 -0.026388 -1.119761
v -0.072333 0.026388 -1.119761
v -0.002785 -0.026388 -1.045784
v -0.002785 0.026388 -1.045784
v 0.166486 0.012056 -0.652599
v 0.230303 0.012056 -1.055858
v 0.166486 -0.012056 -0.652599
v 0.230303 -0.012056 -1.055858
v 0.011019 0.026388 -0.941136
v -0.058530 0.026388 -1.015112
v -0.106375 0.026388 -1.029063
v -0.106375 -0.026388 -1.029063
v -0.058530 -0.026388 -1.015112
v 0.011019 -0.026388 -0.941136
v 0.223233 0.012056 -0.866678
v 0.223233 -0.012056 -0.866678
v -0.018546 -0.026388 -1.176840
v -0.018546 0.026388 -1.176840
v 0.004785 -0.026388 -1.127769
v 0.004785 0.026388 -1.127769
v 0.055000 -0.026388 -1.244619
v 0.055000 0.026388 -1.244619
v 0.047097 -0.026388 -1.138914
v 0.047097 0.026388 -1.138914
v 0.132460 -0.012056 -1.289882
v 0.132460 0.012056 -1.289882
v 0.191948 -0.012056 -1.134977
v 0.191948 0.012056 -1.134977
v 0.076309 0.026388 -1.049203
v 0.076309 -0.026388 -1.049203
v 0.072894 -0.026388 -0.774089
v 0.072894 0.026388 -0.774089
v 0.083030 0.026388 -0.915870
v 0.083030 -0.026388 -0.915870
v -0.023018 -0.026388 -1.262325
v -0.023018 0.026388 -1.262325
v 0.011607 -0.026388 -1.279391
v 0.011607 0.026388 -1.279391
v -0.059909 -0.026388 -1.341465
v -0.059909 0.026388 -1.341465
v 0.006972 -0.026388 -1.360945
v 0.006972 0.026388 -1.360945
v -0.059440 -0.026388 -1.523669
v -0.059440 0.026388 -1.523669
v -0.008083 -0.026388 -1.505891
v -0.008083 0.026388 -1.505891
v -0.049582 -0.026388 -1.596071
v -0.049582 0.026388 -1.596071
v -0.007815 -0.026388 -1.569343
v -0.007815 0.026388 -1.569343
v 0.018448 -0.026388 -1.626755
v 0.018448 0.026388 -1.626755
v 0.069530 -0.026388 -1.577258
v 0.069531 0.026388 -1.577258
v 0.085901 -0.014739 -1.388983
v 0.085901 0.014739 -1.388983
v 0.040832 -0.014739 -1.465621
v 0.040832 0.014739 -1.465621
v -0.158686 0.026388 -0.927604
v -0.158686 -0.026388 -0.927604
v -0.281676 -0.008955 -1.008731
v -0.235321 -0.008955 -1.137853
v -0.235321 0.008955 -1.137853
v -0.281676 0.008955 -1.008731
v -0.193355 0.026388 -0.999464
v -0.193355 -0.026388 -0.999464
v -0.208360 0.008955 -1.180030
v -0.208360 -0.008955 -1.180030
v -0.233696 0.008955 -1.188016
v -0.233696 -0.008955 -1.188016
v -0.266116 0.008955 -1.346144
v -0.266116 -0.008955 -1.346144
v -0.353909 -0.008955 -1.391610
v -0.353909 0.008955 -1.391610
v -0.179782 0.008955 -1.727429
v -0.179782 -0.008955 -1.727429
v -0.131416 0.008955 -1.755008
v -0.131416 -0.008955 -1.755008
v 0.041919 -0.026388 -1.713579
v 0.140640 -0.008955 -1.889036
v 0.041919 0.026387 -1.713579
v 0.140640 0.008955 -1.889036
v -0.059675 -0.026388 -1.432567
v -0.000556 -0.026388 -1.433418
v -0.000556 0.026388 -1.433418
v -0.059675 0.026388 -1.432567
v 0.063367 -0.014739 -1.427302
v 0.063367 0.014739 -1.427302
v -0.240671 -0.008955 -1.403548
v -0.240671 0.008955 -1.403548
v 0.009290 0.026388 -1.320168
v -0.041464 0.026388 -1.301895
v -0.041464 -0.026388 -1.301895
v 0.009290 -0.026388 -1.320168
v -0.332620 0.008955 -1.154560
v -0.332620 -0.008955 -1.154560
v -0.073314 0.073314 0.293548
v -0.073314 -0.073314 0.293548
v 0.073314 0.073314 0.293548
v 0.073314 -0.073314 0.293548
v -0.073314 0.073314 0.401637
v -0.073314 -0.073314 0.401637
v 0.073314 0.073314 0.401637
v 0.073314 -0.073314 0.401637
vt 0.348828 0.742908
vt 0.350726 0.742908
vt 0.350726 0.744806
vt 0.348828 0.744806
vt 0.350726 0.746705
vt 0.348828 0.746705
vt 0.350726 0.748603
vt 0.348828 0.748603
vt 0.350726 0.750501
vt 0.348828 0.750501
vt 0.348828 0.748603
vt 0.348828 0.746705
vt 0.350726 0.744806
vt 0.350726 0.746705
vt 0.459152 0.544768
vt 0.456307 0.542935
vt 0.460125 0.548764
vt 0.453177 0.548706
vt 0.350726 0.748603
vt 0.350726 0.742908
vt 0.350726 0.750501
vt 0.353233 0.744111
vt 0.353298 0.744239
vt 0.353364 0.744351
vt 0.353220 0.744051
vt 0.454150 0.545515
vt 0.456995 0.547348
vt 0.453177 0.541520
vt 0.460125 0.541577
vt 0.353477 0.744443
vt 0.353075 0.743900
vt 0.353064 0.742691
vt 0.353806 0.745516
vt 0.353338 0.744257
vt 0.353225 0.744080
vt 0.353350 0.744763
vt 0.354550 0.747040
vt 0.353415 0.744978
vt 0.352995 0.743819
vt 0.652982 0.177091
vt 0.652944 0.177948
vt 0.652253 0.177586
vt 0.652410 0.176614
vt 0.352865 0.743495
vt 0.352413 0.741167
vt 0.433365 0.554534
vt 0.433365 0.554548
vt 0.433365 0.554520
vt 0.433363 0.554518
vt 0.654176 0.177552
vt 0.653325 0.176989
vt 0.653363 0.175808
vt 0.655211 0.176026
vt 0.653400 0.179925
vt 0.652815 0.181678
vt 0.352436 0.743103
vt 0.354550 0.741373
vt 0.353165 0.747114
vt 0.353149 0.745132
vt 0.654337 0.179881
vt 0.653980 0.179978
vt 0.653987 0.179969
vt 0.433365 0.554566
vt 0.433365 0.554539
vt 0.433365 0.554520
vt 0.433363 0.554523
vt 0.655211 0.181265
vt 0.653966 0.179974
vt 0.653975 0.179971
vt 0.433365 0.554497
vt 0.433364 0.554506
vt 0.433369 0.554481
vt 0.433363 0.554466
vt 0.433366 0.554531
vt 0.433363 0.554534
vt 0.433364 0.554528
vt 0.433364 0.554528
vt 0.433363 0.554550
vt 0.433362 0.554554
vt 0.433362 0.554478
vt 0.433362 0.554456
vt 0.433364 0.554454
vt 0.433365 0.554466
vt 0.433359 0.554442
vt 0.433363 0.554505
vt 0.433362 0.554459
vt 0.433363 0.554496
vt 0.433365 0.554506
vt 0.433366 0.554461
vt 0.433364 0.554504
vt 0.433408 0.554429
vt 0.433396 0.554413
vt 0.433433 0.554368
vt 0.433430 0.554415
vt 0.433365 0.554430
vt 0.433371 0.554400
vt 0.433367 0.554447
vt 0.433359 0.554447
vt 0.433368 0.554442
vt 0.688936 0.177964
vt 0.689240 0.177969
vt 0.689176 0.177791
vt 0.689085 0.177851
vt 0.433366 0.554496
vt 0.433363 0.554490
vt 0.433363 0.554515
vt 0.433366 0.554515
vt 0.689240 0.180576
vt 0.688743 0.180740
vt 0.688551 0.180711
vt 0.688358 0.182406
vt 0.688417 0.182352
vt 0.688599 0.181713
vt 0.688388 0.181667
vt 0.688137 0.180405
vt 0.433391 0.554326
vt 0.433470 0.554317
vt 0.433329 0.554418
vt 0.433319 0.554434
vt 0.433297 0.554423
vt 0.433290 0.554378
vt 0.433361 0.554430
vt 0.433352 0.554402
vt 0.687245 0.179417
vt 0.687095 0.179405
vt 0.687124 0.178779
vt 0.687309 0.178797
vt 0.687406 0.180585
vt 0.686701 0.180585
vt 0.687121 0.179711
vt 0.687157 0.179723
vt 0.686181 0.179419
vt 0.686355 0.178497
vt 0.688136 0.179586
vt 0.688136 0.178640
vt 0.433367 0.554258
vt 0.433402 0.554176
vt 0.433250 0.554336
vt 0.433326 0.554330
vt 0.686562 0.177889
vt 0.687138 0.177793
vt 0.687229 0.178061
vt 0.687142 0.178449
vt 0.433508 0.553937
vt 0.433712 0.554111
vt 0.433287 0.554190
vt 0.433333 0.554262
vt 0.687307 0.178082
vt 0.687336 0.178461
vt 0.687439 0.177791
vt 0.688041 0.177975
vt 0.433369 0.554440
vt 0.433364 0.554451
vt 0.433359 0.554442
vt 0.433342 0.554344
vt 0.433362 0.554449
vt 0.433368 0.554329
vt 0.434103 0.553789
vt 0.433558 0.553522
vt 0.433570 0.552982
vt 0.434523 0.553261
vt 0.432985 0.554197
vt 0.433152 0.553994
vt 0.432640 0.551935
vt 0.431614 0.552149
vt 0.431164 0.550360
vt 0.432361 0.550474
vt 0.433006 0.553578
vt 0.432534 0.553958
vt 0.432013 0.553540
vt 0.432875 0.553052
vt 0.434601 0.551806
vt 0.433560 0.551831
vt 0.433518 0.550355
vt 0.434606 0.549981
vt 0.434606 0.548309
vt 0.433439 0.548735
vt 0.432781 0.547796
vt 0.433282 0.547141
vt 0.430762 0.548575
vt 0.432076 0.548883
vt 0.432184 0.546997
vt 0.432724 0.547789
vt 0.686181 0.180932
vt 0.686560 0.180586
vt 0.686594 0.180930
vt 0.686500 0.181006
vt 0.686945 0.180710
vt 0.686645 0.180968
vt 0.686945 0.181254
vt 0.686535 0.181604
vt 0.686621 0.181232
vt 0.686655 0.181070
vt 0.638551 0.182986
vt 0.638269 0.183024
vt 0.637793 0.182179
vt 0.638444 0.181282
vt 0.640289 0.181863
vt 0.639883 0.182271
vt 0.639139 0.180851
vt 0.640289 0.179705
vt 0.636629 0.180347
vt 0.637161 0.179896
vt 0.638748 0.180485
vt 0.638306 0.180920
vt 0.636584 0.183056
vt 0.636595 0.182667
vt 0.637486 0.182365
vt 0.636831 0.183206
vt 0.636779 0.183470
vt 0.636611 0.183339
vt 0.636666 0.183407
vt 0.636702 0.183443
vt 0.639558 0.182832
vt 0.638771 0.181330
vt 0.637541 0.179391
vt 0.639863 0.179138
vt 0.637420 0.183315
vt 0.637053 0.183421
vt 0.636844 0.183215
vt 0.637507 0.182384
vt 0.433349 0.554482
vt 0.433353 0.554537
vt 0.686409 0.181149
vt 0.686202 0.181439
vt 0.433384 0.554481
vt 0.433385 0.554537
vt 0.433370 0.554454
vt 0.433359 0.554454
vt 0.638527 0.181415
vt 0.638254 0.181179
vt 0.637627 0.182046
vt 0.638398 0.181238
vt 0.637408 0.182312
vt 0.637579 0.182449
vt 0.636802 0.183257
vt 0.636802 0.183255
vt 0.638870 0.183032
vt 0.637831 0.183208
vt 0.636663 0.181437
vt 0.636546 0.181106
vt 0.636599 0.182228
vt 0.636684 0.181741
vt 0.636508 0.183695
vt 0.636447 0.183731
vt 0.348828 0.750501
vt 0.348828 0.750501
vt 0.348828 0.748603
vt 0.348828 0.744806
vt 0.348828 0.742908
vt 0.346930 0.746705
vt 0.348828 0.746705
vt 0.346930 0.748603
vt 0.348828 0.744806
vt 0.404635 0.825765
vt 0.404635 0.827663
vt 0.404635 0.827663
vt 0.404635 0.825765
vt 0.348828 0.742908
vn -1.0000 0.0000 0.0000
vn 0.0000 -1.0000 0.0000
vn 1.0000 0.0000 0.0000
vn 0.0000 1.0000 -0.0000
vn 0.5649 0.0000 -0.8251
vn 0.0000 -0.9884 -0.1520
vn 0.9884 0.0000 -0.1520
vn -0.9884 0.0000 -0.1520
vn 0.0000 0.9884 -0.1520
vn 0.0000 0.8056 0.5924
vn 0.0000 -0.6914 -0.7225
vn 0.0000 -0.8056 0.5924
vn 0.8056 0.0000 0.5924
vn -0.8056 0.0000 0.5924
vn 0.5459 0.0000 0.8379
vn 0.6914 0.0000 -0.7225
vn -0.6914 0.0000 -0.7225
vn 0.0000 0.6914 -0.7225
vn 0.0000 0.7893 -0.6140
vn -0.5459 0.0000 0.8379
vn 0.0000 0.5459 0.8379
vn 0.0000 -0.5459 0.8379
vn 0.0000 -0.7893 -0.6140
vn -0.3213 0.8522 -0.4130
vn -0.7893 0.0000 -0.6140
vn 0.7893 0.0000 -0.6140
vn 0.0035 0.0000 1.0000
vn 0.6140 0.0000 0.7893
vn -0.3213 -0.8522 -0.4130
vn 0.9989 0.0000 -0.0470
vn -0.1465 0.9314 -0.3331
vn -0.1465 -0.9314 -0.3331
vn -0.6083 0.0000 -0.7937
vn 0.5755 0.0000 0.8178
vn -0.7855 0.0000 0.6188
vn 0.8222 0.0000 -0.5692
vn 0.9896 0.0000 -0.1441
vn 0.9150 0.0000 -0.4034
vn -0.9997 0.0000 -0.0247
vn 0.7027 0.0000 -0.7115
vn 0.0014 0.0000 -1.0000
vn -0.2209 -0.9750 -0.0255
vn -0.9902 0.0000 -0.1400
vn -0.9844 0.0000 0.1757
vn 0.9682 0.0000 0.2501
vn -0.1687 0.9853 0.0288
vn -0.1687 -0.9853 0.0288
vn -0.2209 0.9750 -0.0255
vn 0.9993 0.0000 0.0373
vn -0.7922 0.0000 0.6103
vn 0.0970 -0.9953 0.0001
vn 0.1072 0.9940 0.0201
vn 0.0970 0.9953 0.0001
vn 0.1072 -0.9940 0.0201
vn 0.9666 0.0000 0.2562
vn 0.9958 0.0000 0.0919
vn 0.1234 -0.9921 -0.0244
vn 0.2547 -0.0000 0.9670
vn 0.9335 0.0000 -0.3585
vn 0.1234 0.9921 -0.0244
vn -0.5045 0.0000 -0.8634
vn -0.0432 0.0000 -0.9991
vn 0.0951 0.9947 -0.0380
vn -0.9509 0.0000 0.3096
vn 0.0951 -0.9947 -0.0380
vn 0.8998 0.0000 -0.4362
vn 0.6253 -0.0000 -0.7804
vn 0.9984 -0.0000 -0.0567
vn 0.1545 0.9871 -0.0419
vn 0.3347 0.0000 0.9423
vn 0.2259 -0.9722 -0.0613
vn -0.0743 0.9971 -0.0155
vn -0.1082 0.9930 -0.0482
vn -0.0935 -0.9927 -0.0761
vn -0.0818 -0.9960 -0.0369
vn 0.9654 0.0000 0.2609
vn -0.0935 0.9927 -0.0761
vn -0.1082 -0.9930 -0.0482
vn -0.0818 0.9960 -0.0369
vn -0.1137 -0.9841 -0.1364
vn 0.6959 -0.0000 -0.7182
vn 0.1018 -0.0000 0.9948
vn 1.0000 -0.0000 0.0042
vn 0.8620 0.0000 -0.5069
vn 0.6356 0.0000 -0.7720
vn -0.9412 0.0000 -0.3379
vn -0.1044 0.0000 0.9945
vn -0.9007 0.0000 0.4345
vn -0.8426 0.0000 -0.5386
vn -0.3007 0.0000 0.9537
vn -0.9447 0.0000 -0.3279
vn 0.1048 0.0000 0.9945
vn -0.8878 0.0000 -0.4603
vn -0.4953 0.0000 -0.8687
vn -0.0821 0.9963 0.0262
vn -0.0492 0.9963 0.0703
vn -0.0073 -0.9902 0.1393
vn -0.0821 -0.9963 0.0262
vn -0.0482 0.0000 0.9988
vn -0.0434 0.9953 -0.0868
vn -0.1137 0.9841 -0.1364
vn -0.0434 -0.9953 -0.0868
vn -0.0906 -0.9958 -0.0157
vn 0.8715 0.0000 0.4904
vn -0.0756 0.9920 -0.1012
vn -0.0756 -0.9920 -0.1012
vn -0.4419 0.0000 -0.8970
vn -0.0492 -0.9963 0.0703
vn -0.0906 0.9958 -0.0157
vn -0.9142 0.0000 -0.4053
vn 0.1545 -0.9871 -0.0419
vn 0.2259 0.9722 -0.0613
vn -0.0743 -0.9971 -0.0155
vn 0.3204 0.0000 0.9473
vn -0.0073 0.9902 0.1393
vn 0.0000 0.5649 -0.8251
vn 0.0000 -0.5649 -0.8251
vn -0.5649 0.0000 -0.8251
vn 0.0000 0.0000 1.0000
usemtl Material.001
s off
f 1/1/1 2/2/1 4/3/1 3/4/1
f 3/4/2 4/3/2 8/5/2 7/6/2
f 7/6/3 8/5/3 6/7/3 5/8/3
f 5/8/4 6/7/4 2/9/4 1/10/4
f 7/6/5 5/8/5 181/11/5 182/12/5
f 8/5/6 4/3/6 10/13/6 12/14/6
f 11/15/3 12/16/3 16/17/3 15/18/3
f 6/7/7 8/5/7 12/14/7 11/19/7
f 4/3/8 2/2/8 9/20/8 10/13/8
f 2/9/9 6/7/9 11/19/9 9/21/9
f 13/22/10 15/23/10 19/24/10 17/25/10
f 10/26/1 9/27/1 13/28/1 14/29/1
f 9/27/4 11/15/4 15/18/4 13/28/4
f 12/16/2 10/26/2 14/29/2 16/17/2
f 20/30/11 18/31/11 22/32/11 24/33/11
f 16/34/12 14/35/12 18/31/12 20/30/12
f 15/23/13 16/34/13 20/30/13 19/24/13
f 14/35/14 13/22/14 17/25/14 18/31/14
f 23/36/15 24/33/15 28/37/15 27/38/15
f 19/24/16 20/30/16 24/33/16 23/36/16
f 18/31/17 17/25/17 21/39/17 22/32/17
f 17/25/18 19/24/18 23/36/18 21/39/18
f 34/40/19 33/41/19 31/42/19 29/43/19
f 22/32/20 21/39/20 25/44/20 26/45/20
f 21/39/21 23/36/21 27/38/21 25/44/21
f 24/33/22 22/32/22 26/45/22 28/37/22
f 37/46/2 32/47/2 47/48/2 49/49/2
f 36/50/23 35/51/23 30/52/23 32/53/23
f 31/42/24 33/41/24 39/54/24 38/55/24
f 35/51/25 34/40/25 29/43/25 30/52/25
f 26/45/25 25/44/25 34/56/25 35/57/25
f 27/38/26 28/37/26 36/58/26 33/59/26
f 28/37/23 26/45/23 35/57/23 36/58/23
f 25/44/19 27/38/19 33/59/19 34/56/19
f 39/54/27 40/60/27 44/61/27 43/62/27
f 31/63/4 38/64/4 50/65/4 48/66/4
f 33/41/28 36/50/28 40/60/28 39/54/28
f 36/50/29 32/53/29 37/67/29 40/60/29
f 43/62/30 44/61/30 41/68/30 42/69/30
f 38/55/31 39/54/31 43/62/31 42/69/31
f 40/60/32 37/67/32 41/68/32 44/61/32
f 37/67/33 38/55/33 42/69/33 41/68/33
f 70/70/4 69/71/4 56/72/4 54/73/4
f 46/74/34 45/75/34 63/76/34 64/77/34
f 30/78/35 29/79/35 45/75/35 46/74/35
f 38/64/36 37/46/36 49/49/36 50/65/36
f 29/79/4 31/63/4 48/66/4 45/75/4
f 32/47/2 30/78/2 46/74/2 47/48/2
f 56/72/37 55/80/37 61/81/37 62/82/37
f 55/80/2 53/83/2 59/84/2 61/81/2
f 67/85/4 70/70/4 54/73/4 51/86/4
f 71/87/2 68/88/2 52/89/2 53/83/2
f 72/90/2 71/87/2 53/83/2 55/80/2
f 69/71/38 72/90/38 55/80/38 56/72/38
f 93/91/4 92/92/4 84/93/4 81/94/4
f 92/92/4 91/95/4 86/96/4 84/93/4
f 52/89/39 51/86/39 57/97/39 58/98/39
f 54/73/4 56/72/4 62/82/4 60/99/4
f 51/86/4 54/73/4 60/99/4 57/97/4
f 53/83/2 52/89/2 58/98/2 59/84/2
f 65/100/40 66/101/40 79/102/40 78/103/40
f 51/86/41 52/89/41 66/104/41 65/105/41
f 68/88/2 46/74/2 64/77/2 74/106/2
f 67/85/4 51/86/4 65/105/4 73/107/4
f 45/75/4 67/85/4 73/107/4 63/76/4
f 52/89/2 68/88/2 74/106/2 66/104/2
f 66/101/42 74/108/42 80/109/42 79/102/42
f 50/65/38 49/49/38 72/90/38 69/71/38
f 49/49/2 47/48/2 71/87/2 72/90/2
f 47/48/2 46/74/2 68/88/2 71/87/2
f 45/75/4 48/66/4 70/70/4 67/85/4
f 48/66/4 50/65/4 69/71/4 70/70/4
f 80/109/43 77/110/43 78/103/43 79/102/43
f 76/111/44 75/112/44 77/110/44 80/109/44
f 64/113/45 63/114/45 75/112/45 76/111/45
f 63/114/46 73/115/46 77/110/46 75/112/46
f 74/108/47 64/113/47 76/111/47 80/109/47
f 73/115/48 65/100/48 78/103/48 77/110/48
f 84/93/4 86/96/4 102/116/4 100/117/4
f 95/118/2 94/119/2 82/120/2 83/121/2
f 96/122/2 95/118/2 83/121/2 85/123/2
f 97/124/49 98/125/49 90/126/49 88/127/49
f 114/128/50 113/129/50 89/130/50 87/131/50
f 116/132/51 112/133/51 90/126/51 98/125/51
f 115/134/52 114/128/52 87/131/52 97/124/52
f 111/135/53 115/134/53 97/124/53 88/127/53
f 113/129/54 116/132/54 98/125/54 89/130/54
f 87/131/55 89/130/55 98/125/55 97/124/55
f 61/81/2 59/84/2 95/118/2 96/122/2
f 59/84/2 58/98/2 94/119/2 95/118/2
f 60/99/4 62/82/4 91/95/4 92/92/4
f 57/97/4 60/99/4 92/92/4 93/91/4
f 100/117/4 102/116/4 106/136/4 104/137/4
f 85/123/2 83/121/2 99/138/2 101/139/2
f 86/96/56 85/123/56 101/139/56 102/116/56
f 105/140/57 103/141/57 107/142/57 109/143/57
f 100/117/4 104/137/4 120/144/4 118/145/4
f 101/139/2 99/138/2 103/146/2 105/147/2
f 102/116/58 101/139/58 105/147/58 106/136/58
f 107/142/59 108/148/59 110/149/59 109/143/59
f 104/150/60 106/151/60 110/149/60 108/148/60
f 103/141/61 104/150/61 108/148/61 107/142/61
f 61/81/2 96/122/2 116/152/2 113/153/2
f 86/96/4 91/95/4 115/154/4 111/155/4
f 91/95/4 62/82/4 114/156/4 115/154/4
f 96/122/2 85/123/2 112/157/2 116/152/2
f 62/82/50 61/81/50 113/153/50 114/156/50
f 85/123/62 86/96/62 111/155/62 112/157/62
f 110/149/63 106/151/63 111/135/63 88/127/63
f 106/136/64 105/147/64 112/157/64 111/155/64
f 105/140/65 109/143/65 90/126/65 112/133/65
f 109/143/66 110/149/66 88/127/66 90/126/66
f 174/158/4 173/159/4 124/160/4 122/161/4
f 103/146/2 99/138/2 117/162/2 119/163/2
f 104/137/67 103/146/67 119/163/67 120/144/67
f 166/164/2 165/165/2 125/166/2 127/167/2
f 176/168/2 175/169/2 121/170/2 123/171/2
f 173/159/68 176/168/68 123/171/68 124/160/68
f 168/172/4 167/173/4 128/174/4 126/175/4
f 130/176/4 132/177/4 136/178/4 134/179/4
f 126/175/4 128/174/4 132/177/4 130/176/4
f 127/167/2 125/166/2 129/180/2 131/181/2
f 131/181/2 129/180/2 133/182/2 135/183/2
f 167/184/69 124/185/69 138/186/69 170/187/69
f 124/185/70 123/188/70 137/189/70 138/186/70
f 166/190/71 127/191/71 139/192/71 169/193/71
f 174/194/72 122/195/72 153/196/72 177/197/72
f 81/198/73 84/199/73 145/200/73 146/201/73
f 99/202/74 83/203/74 144/204/74 150/205/74
f 129/206/75 125/207/75 155/208/75 158/209/75
f 134/210/76 133/211/76 161/212/76 163/213/76
f 84/199/77 100/214/77 149/215/77 145/200/77
f 83/203/78 82/216/78 143/217/78 144/204/78
f 126/218/79 130/219/79 157/220/79 156/221/79
f 82/120/80 94/119/80 148/222/80 143/223/80
f 134/179/81 136/178/81 135/183/81 133/182/81
f 132/177/82 131/181/82 135/183/82 136/178/82
f 127/167/83 131/181/83 132/177/83 128/174/83
f 170/187/84 169/193/84 139/192/84 140/224/84
f 128/225/85 140/224/85 139/192/85 127/191/85
f 143/217/86 146/201/86 145/200/86 144/204/86
f 148/222/87 147/226/87 146/227/87 143/223/87
f 141/228/88 147/226/88 148/222/88 142/229/88
f 149/215/89 150/205/89 144/204/89 145/200/89
f 149/215/90 151/230/90 152/231/90 150/205/90
f 177/197/91 153/196/91 154/232/91 178/233/91
f 171/234/92 172/235/92 156/221/92 155/208/92
f 156/221/93 157/220/93 158/209/93 155/208/93
f 157/220/94 159/236/94 160/237/94 158/209/94
f 100/214/95 118/238/95 151/230/95 149/215/95
f 168/239/96 126/218/96 156/221/96 172/235/96
f 175/240/97 117/241/97 152/231/97 178/233/97
f 117/241/98 99/202/98 150/205/98 152/231/98
f 58/98/99 57/97/99 141/228/99 142/229/99
f 130/219/100 134/210/100 159/236/100 157/220/100
f 93/91/101 81/94/101 146/227/101 147/226/101
f 133/211/102 129/206/102 158/209/102 160/237/102
f 57/97/4 93/91/4 147/226/4 141/228/4
f 94/119/2 58/98/2 142/229/2 148/222/2
f 165/242/103 121/243/103 154/232/103 171/234/103
f 163/213/104 161/212/104 162/244/104 164/245/104
f 159/236/105 134/210/105 163/213/105 164/245/105
f 133/211/106 160/237/106 162/244/106 161/212/106
f 160/237/107 159/236/107 164/245/107 162/244/107
f 125/207/108 165/242/108 171/234/108 155/208/108
f 122/195/109 168/239/109 172/235/109 153/196/109
f 154/232/110 153/196/110 172/235/110 171/234/110
f 138/186/84 137/189/84 169/193/84 170/187/84
f 123/188/111 166/190/111 169/193/111 137/189/111
f 128/225/112 167/184/112 170/187/112 140/224/112
f 122/161/4 124/160/4 167/173/4 168/172/4
f 123/171/2 121/170/2 165/165/2 166/164/2
f 121/243/113 175/240/113 178/233/113 154/232/113
f 151/230/114 177/197/114 178/233/114 152/231/114
f 118/238/115 174/194/115 177/197/115 151/230/115
f 120/144/68 119/163/68 176/168/68 173/159/68
f 119/163/2 117/162/2 175/169/2 176/168/2
f 118/145/4 120/144/4 173/159/4 174/158/4
f 181/11/4 179/246/4 183/247/4 185/248/4
f 5/8/116 1/10/116 179/246/116 181/11/116
f 3/4/117 7/6/117 182/12/117 180/249/117
f 1/1/118 3/4/118 180/249/118 179/250/118
f 184/251/119 186/252/119 185/248/119 183/253/119
f 180/249/2 182/12/2 186/252/2 184/254/2
f 182/255/3 181/256/3 185/257/3 186/258/3
f 179/250/1 180/249/1 184/254/1 183/259/1
