# Blender v2.82 (sub 7) OBJ File: '28.blend'
# www.blender.org
mtllib 28.mtl
o Weapon28_Cube.005
v -0.054520 0.031611 0.243781
v -0.054520 0.031611 0.148149
v -0.054520 -0.031611 0.243781
v -0.054520 -0.031611 0.148149
v -0.110711 0.064191 0.250185
v -0.110711 -0.064191 0.250185
v -0.041837 0.024258 0.384315
v -0.041837 -0.024258 0.384315
v -0.030503 0.012507 0.134669
v -0.030503 -0.012507 0.134669
v -0.037297 0.015292 -0.133175
v -0.037297 -0.015292 -0.133175
v -0.051562 0.021141 -0.178822
v -0.051562 -0.021141 -0.178822
v -0.051562 0.021141 -0.280165
v -0.051562 -0.021141 -0.280165
v -0.057524 0.021141 -0.416685
v -0.057524 -0.021141 -0.416685
v -0.110555 0.021141 -0.190206
v -0.110555 -0.021141 -0.190206
v -0.129991 0.021141 -0.235656
v -0.129991 -0.021141 -0.235656
v -0.081576 0.021141 -0.139388
v -0.081576 -0.021141 -0.139388
v -0.163004 0.021141 -0.145882
v -0.163004 -0.021141 -0.145882
v -0.243995 0.021141 -0.244428
v -0.243995 -0.021141 -0.244428
v -0.190479 0.006342 -0.265497
v -0.246721 0.006342 -0.317654
v -0.190479 -0.006342 -0.265497
v -0.246721 -0.006342 -0.317654
v -0.102527 0.021141 -0.381031
v -0.102527 -0.021141 -0.381031
v -0.125252 0.021141 -0.332357
v -0.125252 -0.021141 -0.332357
v -0.147745 0.021141 -0.391170
v -0.147745 -0.021141 -0.391170
v -0.163711 0.021141 -0.377722
v -0.163711 -0.021141 -0.377722
v -0.166683 0.021141 -0.411454
v -0.166683 -0.021141 -0.411454
v -0.180563 0.021141 -0.409753
v -0.180563 -0.021141 -0.409753
v -0.160664 0.011172 -0.421651
v -0.160664 -0.011172 -0.421651
v -0.160804 0.011172 -0.442526
v -0.160804 -0.011172 -0.442526
v -0.131827 0.011172 -0.419532
v -0.131827 -0.011172 -0.419532
v -0.116935 0.011172 -0.426188
v -0.116935 -0.011172 -0.426188
v -0.057524 0.010973 -0.510845
v -0.057524 -0.010973 -0.510845
v -0.057524 0.021141 -1.340644
v -0.057524 -0.021142 -1.340644
v 0.054520 0.031611 0.243781
v 0.054520 0.031611 0.148149
v 0.054520 -0.031611 0.243781
v 0.054520 -0.031611 0.148149
v 0.110711 0.064191 0.250185
v 0.110711 -0.064191 0.250185
v 0.041837 0.024258 0.384315
v 0.041837 -0.024258 0.384315
v -0.000000 -0.061255 0.243781
v -0.000000 -0.061255 0.148149
v -0.000000 0.061255 0.243781
v -0.000000 0.061255 0.148149
v 0.000000 -0.124387 0.250185
v -0.000000 0.124387 0.250185
v 0.000000 -0.047005 0.384315
v 0.000000 0.047005 0.384315
v 0.030503 0.012507 0.134669
v 0.030503 -0.012507 0.134669
v -0.000000 -0.028976 0.134669
v -0.000000 0.028976 0.134669
v 0.037297 0.015292 -0.133175
v 0.037297 -0.015292 -0.133175
v -0.000000 -0.035429 -0.133175
v -0.000000 0.035429 -0.133175
v 0.051562 0.021141 -0.178822
v 0.051562 -0.021141 -0.178822
v -0.000000 -0.048981 -0.178822
v -0.000000 0.048981 -0.178822
v 0.051562 0.021141 -0.280165
v 0.051562 -0.021141 -0.280165
v -0.000000 -0.048981 -0.280165
v -0.000000 0.048981 -0.280165
v 0.057524 0.021141 -0.416685
v 0.057524 -0.021141 -0.416685
v -0.000000 -0.030145 -0.532032
v -0.000000 0.030145 -0.532032
v 0.110555 0.021141 -0.190206
v 0.110555 -0.021141 -0.190206
v 0.129991 0.021141 -0.235656
v 0.129991 -0.021141 -0.235656
v 0.081576 0.021141 -0.139388
v 0.081576 -0.021141 -0.139388
v 0.163004 0.021141 -0.145882
v 0.163004 -0.021141 -0.145882
v 0.243995 0.021141 -0.244428
v 0.243995 -0.021141 -0.244428
v 0.190479 0.006342 -0.265497
v 0.246721 0.006342 -0.317654
v 0.190479 -0.006342 -0.265497
v 0.246721 -0.006342 -0.317654
v 0.102527 0.021141 -0.381031
v 0.102527 -0.021141 -0.381031
v 0.125252 0.021141 -0.332357
v 0.125252 -0.021141 -0.332357
v 0.147745 0.021141 -0.391170
v 0.147745 -0.021141 -0.391170
v 0.163711 0.021141 -0.377722
v 0.163711 -0.021141 -0.377722
v 0.166683 0.021141 -0.411454
v 0.166683 -0.021141 -0.411454
v 0.180563 0.021141 -0.409753
v 0.180563 -0.021141 -0.409753
v 0.160664 0.011172 -0.421651
v 0.160664 -0.011172 -0.421651
v 0.160804 0.011172 -0.442526
v 0.160804 -0.011172 -0.442526
v 0.131827 0.011172 -0.419532
v 0.131827 -0.011172 -0.419532
v 0.116935 0.011172 -0.426188
v 0.116935 -0.011172 -0.426188
v 0.057524 0.021141 -0.507750
v 0.057524 -0.021141 -0.507750
v -0.000000 0.030145 -0.571774
v -0.000000 -0.030145 -0.571774
v 0.057524 0.021141 -1.405225
v 0.057524 -0.021142 -1.405225
v -0.000000 0.030145 -1.380602
v -0.000000 -0.030145 -1.380602
v -0.098729 0.010973 -0.562351
v -0.098729 -0.010973 -0.562351
v -0.101304 0.010973 -1.302143
v -0.101304 -0.010973 -1.302143
v -0.094782 0.021141 -1.464839
v -0.094782 -0.021142 -1.464839
v -0.027323 0.030145 -1.526782
v -0.027323 -0.030145 -1.526782
v 0.036411 0.021141 -1.567920
v 0.036411 -0.021142 -1.567920
v -0.167127 0.010973 -1.366725
v -0.167127 -0.010973 -1.366725
v 0.150667 0.021141 -1.434129
v 0.150667 -0.021142 -1.434129
v 0.180208 0.021141 -1.625649
v 0.180208 -0.021142 -1.625649
v -0.082870 -0.021142 -1.425133
v -0.146083 -0.010973 -1.346078
v 0.043161 0.021141 -1.515906
v -0.018588 0.030145 -1.483106
v -0.082870 0.021141 -1.425133
v -0.146083 0.010973 -1.346078
v -0.018588 -0.030145 -1.483106
v 0.043161 -0.021142 -1.515906
v 0.166363 0.021141 -1.570287
v 0.166363 -0.021142 -1.570287
v -0.079917 -0.015200 -1.396579
v -0.062930 -0.015200 -1.352471
v -0.000276 0.021673 -1.398942
v -0.062930 0.015200 -1.352471
v -0.000276 -0.021673 -1.398942
v 0.057525 0.015200 -1.420042
v 0.057525 -0.015200 -1.420042
v -0.095132 0.015200 -1.325639
v -0.095132 -0.015200 -1.325639
v -0.015469 0.021329 -1.462403
v -0.079917 0.015200 -1.396579
v 0.049321 -0.015200 -1.499864
v 0.138907 -0.015200 -1.536589
v 0.125020 -0.015200 -1.439033
v 0.125020 0.015200 -1.439033
v -0.109222 -0.015200 -1.342231
v 0.049321 0.015200 -1.499864
v -0.109222 0.015200 -1.342231
v -0.015469 -0.021329 -1.462403
v 0.138907 0.015200 -1.536589
vt 0.459279 0.936839
vt 0.458850 0.936541
vt 0.458813 0.936393
vt 0.459279 0.935867
vt 0.458865 0.937050
vt 0.458776 0.936607
vt 0.458818 0.936512
vt 0.458799 0.936434
vt 0.116396 0.822376
vt 0.116396 0.823626
vt 0.116396 0.823626
vt 0.116396 0.822376
vt 0.116396 0.813626
vt 0.116396 0.816126
vt 0.116396 0.816126
vt 0.116396 0.813626
vt 0.116396 0.822376
vt 0.116396 0.823626
vt 0.116396 0.816126
vt 0.116396 0.813626
vt 0.116396 0.817376
vt 0.116396 0.817376
vt 0.113896 0.818626
vt 0.115146 0.818626
vt 0.115146 0.821126
vt 0.113896 0.821126
vt 0.116396 0.817376
vt 0.458730 0.936378
vt 0.458568 0.935574
vt 0.460686 0.455492
vt 0.460493 0.455514
vt 0.461149 0.456328
vt 0.460468 0.456530
vt 0.458764 0.936547
vt 0.458740 0.936428
vt 0.464460 0.459444
vt 0.459336 0.461935
vt 0.460374 0.455830
vt 0.461383 0.455253
vt 0.460576 0.455948
vt 0.460804 0.454837
vt 0.460626 0.451269
vt 0.460626 0.453925
vt 0.455628 0.453925
vt 0.455628 0.451269
vt 0.464460 0.453585
vt 0.461402 0.451937
vt 0.113581 0.911979
vt 0.109680 0.900739
vt 0.109680 0.852332
vt 0.113996 0.874501
vt 0.460628 0.453925
vt 0.460628 0.451269
vt 0.465626 0.451269
vt 0.465626 0.453925
vt 0.459279 0.451056
vt 0.461286 0.454592
vt 0.457668 0.454592
vt 0.457446 0.452621
vt 0.461199 0.942686
vt 0.460811 0.947754
vt 0.459703 0.944623
vt 0.459981 0.942398
vt 0.118317 0.900739
vt 0.114416 0.911979
vt 0.114001 0.874501
vt 0.118317 0.852332
vt 0.625000 0.250000
vt 0.625000 0.250000
vt 0.625000 0.250000
vt 0.625000 0.250000
vt 0.458836 0.938258
vt 0.458766 0.937847
vt 0.458848 0.937664
vt 0.459193 0.937940
vt 0.461286 0.457518
vt 0.459279 0.461053
vt 0.457446 0.459488
vt 0.457668 0.457518
vt 0.458599 0.937759
vt 0.458771 0.937614
vt 0.458866 0.937574
vt 0.458776 0.937599
vt 0.459193 0.937394
vt 0.458658 0.937426
vt 0.458829 0.937387
vt 0.451569 0.938273
vt 0.458923 0.938273
vt 0.458923 0.943271
vt 0.451569 0.943271
vt 0.458738 0.937608
vt 0.458767 0.937608
vt 0.458981 0.937051
vt 0.458745 0.937594
vt 0.458768 0.937606
vt 0.625000 0.250000
vt 0.625000 0.250000
vt 0.116508 0.904196
vt 0.114922 0.904196
vt 0.114922 0.902232
vt 0.116508 0.902232
vt 0.625000 1.000000
vt 0.625000 1.000000
vt 0.625000 1.000000
vt 0.625000 1.000000
vt 0.114922 0.894198
vt 0.116508 0.894198
vt 0.116508 0.895447
vt 0.114922 0.895447
vt 0.625000 0.250000
vt 0.625000 0.250000
vt 0.114922 0.900938
vt 0.116508 0.900938
vt 0.625000 1.000000
vt 0.625000 1.000000
vt 0.116508 0.896455
vt 0.114922 0.896455
vt 0.625000 1.000000
vt 0.625000 1.000000
vt 0.625000 1.000000
vt 0.625000 1.000000
vt 0.114922 0.900151
vt 0.116508 0.900151
vt 0.116508 0.897058
vt 0.114922 0.897058
vt 0.114922 0.897316
vt 0.116508 0.897316
vt 0.116508 0.897945
vt 0.114922 0.897945
vt 0.625000 0.250000
vt 0.625000 0.250000
vt 0.114922 0.899318
vt 0.116508 0.899318
vt 0.116508 0.898300
vt 0.114922 0.898300
vt 0.625000 0.250000
vt 0.625000 0.250000
vt 0.625000 1.000000
vt 0.625000 1.000000
vt 0.118174 0.821538
vt 0.118694 0.822101
vt 0.111631 0.822045
vt 0.111291 0.821538
vt 0.457433 0.947825
vt 0.458514 0.944625
vt 0.457054 0.942352
vt 0.458486 0.942311
vt 0.113655 0.816738
vt 0.114008 0.819077
vt 0.113010 0.819547
vt 0.112872 0.817426
vt 0.457725 0.943330
vt 0.457785 0.943126
vt 0.457772 0.943136
vt 0.457728 0.943318
vt 0.118694 0.819340
vt 0.118174 0.819903
vt 0.111291 0.819903
vt 0.111631 0.819396
vt 0.458402 0.937016
vt 0.458027 0.936119
vt 0.458660 0.936424
vt 0.458682 0.936574
vt 0.458689 0.936456
vt 0.458700 0.936536
vt 0.116396 0.823626
vt 0.116396 0.823626
vt 0.116396 0.813626
vt 0.116396 0.813626
vt 0.116396 0.816126
vt 0.116396 0.816126
vt 0.116396 0.823626
vt 0.116396 0.813626
vt 0.116396 0.816126
vt 0.113896 0.818626
vt 0.113896 0.821126
vt 0.459913 0.456053
vt 0.460861 0.455569
vt 0.455642 0.457617
vt 0.460106 0.454989
vt 0.460805 0.455902
vt 0.460626 0.456580
vt 0.455628 0.456580
vt 0.457944 0.452242
vt 0.105779 0.911979
vt 0.105363 0.874501
vt 0.465626 0.456580
vt 0.460628 0.456580
vt 0.455611 0.451056
vt 0.457444 0.452621
vt 0.457222 0.454592
vt 0.453604 0.454592
vt 0.460369 0.940555
vt 0.461199 0.938409
vt 0.122633 0.874501
vt 0.122218 0.911979
vt 0.625000 0.250000
vt 0.625000 0.250000
vt 0.625000 0.250000
vt 0.625000 0.250000
vt 0.460003 0.937051
vt 0.460360 0.937368
vt 0.460016 0.937645
vt 0.459933 0.937461
vt 0.453604 0.457518
vt 0.457222 0.457518
vt 0.457444 0.459488
vt 0.455611 0.461053
vt 0.459938 0.937694
vt 0.459766 0.937550
vt 0.460034 0.937734
vt 0.459943 0.937709
vt 0.460360 0.937914
vt 0.459825 0.937882
vt 0.459997 0.937922
vt 0.451569 0.948270
vt 0.451569 0.943273
vt 0.458923 0.943273
vt 0.458923 0.948270
vt 0.459934 0.937701
vt 0.459906 0.937701
vt 0.460148 0.938258
vt 0.459935 0.937702
vt 0.459912 0.937715
vt 0.625000 0.250000
vt 0.625000 0.250000
vt 0.114920 0.894198
vt 0.114920 0.896162
vt 0.113334 0.896162
vt 0.113334 0.894198
vt 0.625000 1.000000
vt 0.625000 1.000000
vt 0.625000 1.000000
vt 0.625000 1.000000
vt 0.113334 0.904196
vt 0.113334 0.902947
vt 0.114920 0.902947
vt 0.114920 0.904196
vt 0.625000 0.250000
vt 0.625000 0.250000
vt 0.114920 0.897456
vt 0.113334 0.897456
vt 0.625000 1.000000
vt 0.625000 1.000000
vt 0.113334 0.901939
vt 0.114920 0.901939
vt 0.625000 1.000000
vt 0.625000 1.000000
vt 0.625000 1.000000
vt 0.625000 1.000000
vt 0.114920 0.898243
vt 0.113334 0.898243
vt 0.113334 0.901335
vt 0.114920 0.901335
vt 0.113334 0.901078
vt 0.113334 0.900449
vt 0.114920 0.900449
vt 0.114920 0.901078
vt 0.625000 0.250000
vt 0.625000 0.250000
vt 0.114920 0.899076
vt 0.113334 0.899076
vt 0.114920 0.900094
vt 0.113334 0.900094
vt 0.625000 0.250000
vt 0.625000 0.250000
vt 0.625000 1.000000
vt 0.625000 1.000000
vt 0.111081 0.821031
vt 0.118719 0.821031
vt 0.458687 0.940313
vt 0.458592 0.937826
vt 0.114008 0.821047
vt 0.112697 0.821221
vt 0.111081 0.820410
vt 0.118719 0.820410
vt 0.457731 0.943319
vt 0.457763 0.943127
vt 0.457728 0.943332
vt 0.457773 0.943101
vt 0.110318 0.816530
vt 0.111464 0.814341
vt 0.111730 0.814983
vt 0.111047 0.817309
vt 0.110665 0.819456
vt 0.110895 0.821206
vt 0.112341 0.815095
vt 0.112664 0.814348
vt 0.109542 0.820927
vt 0.109690 0.818884
vt 0.457173 0.939529
vt 0.457456 0.935574
vt 0.458026 0.936767
vt 0.457712 0.939596
vt 0.112761 0.824255
vt 0.110581 0.824340
vt 0.111530 0.823365
vt 0.111913 0.823496
vt 0.457797 0.943096
vt 0.457791 0.943088
vt 0.457801 0.943080
vt 0.457807 0.943088
vt 0.455272 0.945391
vt 0.465270 0.945391
vt 0.465129 0.947432
vt 0.457943 0.947255
vt 0.465270 0.940071
vt 0.455272 0.940071
vt 0.457721 0.943169
vt 0.457524 0.942961
vt 0.457722 0.943026
vt 0.457717 0.943127
vt 0.457782 0.943093
vt 0.457784 0.943088
vt 0.457790 0.943086
vt 0.457793 0.943131
vt 0.457776 0.943142
vt 0.457756 0.943177
vt 0.457752 0.943121
vt 0.457789 0.943104
vt 0.457799 0.943097
vt 0.457795 0.943103
vt 0.457943 0.938207
vt 0.465129 0.938030
vt 0.115826 0.825885
vt 0.118727 0.824904
vt 0.119138 0.827548
vt 0.115972 0.829577
vt 0.115413 0.824253
vt 0.112512 0.823272
vt 0.112657 0.819580
vt 0.115824 0.821609
vt 0.457814 0.943151
vt 0.457775 0.943160
vt 0.115216 0.826632
vt 0.115824 0.829577
vt 0.114276 0.829318
vt 0.112785 0.826144
vt 0.457772 0.943083
vt 0.118530 0.822525
vt 0.116100 0.823013
vt 0.119138 0.819580
vt 0.117591 0.819839
vt 0.457940 0.943131
vt 0.457896 0.943161
vt 0.457883 0.943147
vt 0.457932 0.943119
vt 0.457806 0.943091
vt 0.457831 0.943172
vt 0.458026 0.943079
vt 0.457993 0.943080
vt 0.457798 0.943080
vt 0.456972 0.941302
vt 0.457508 0.941442
vn -1.0000 0.0000 0.0000
vn -0.4777 0.8785 0.0000
vn -0.4895 0.0000 -0.8720
vn -0.4261 0.7836 0.4521
vn -0.1132 0.0000 -0.9936
vn -0.0548 0.1008 -0.9934
vn -0.8896 0.0000 0.4568
vn -0.4261 -0.7836 0.4521
vn -0.0000 0.0000 1.0000
vn -0.0548 -0.1008 -0.9934
vn -0.4777 -0.8785 0.0000
vn -0.4750 -0.8797 0.0212
vn -0.2050 0.3779 -0.9029
vn -0.2050 -0.3779 -0.9029
vn -0.4597 -0.8514 0.2528
vn -0.9997 0.0000 0.0254
vn -0.4750 0.8797 0.0212
vn -0.4751 0.8799 -0.0000
vn -0.9545 0.0000 0.2983
vn -0.4597 0.8514 0.2528
vn -0.3572 0.9332 -0.0398
vn -0.4751 -0.8799 0.0000
vn -0.0000 1.0000 -0.0000
vn -0.3389 -0.9381 -0.0712
vn -0.3572 -0.9332 -0.0398
vn -0.0000 -1.0000 0.0000
vn -0.4936 0.0000 -0.8697
vn -0.7726 0.0000 0.6349
vn -0.0795 0.0000 0.9968
vn 0.7957 0.0000 0.6056
vn 0.1226 0.9314 -0.3427
vn 0.6800 0.0000 -0.7332
vn 0.1226 -0.9314 -0.3427
vn 0.4424 0.0000 -0.8968
vn -0.9993 0.0000 0.0372
vn -0.5780 0.0000 0.8160
vn -0.6210 0.0000 -0.7838
vn -0.7628 0.0000 0.6467
vn 0.2188 0.0000 -0.9758
vn 0.3200 0.9181 -0.2340
vn -0.8850 0.0000 0.4656
vn 0.7310 0.0000 -0.6824
vn -0.0733 0.0000 0.9973
vn 0.8612 0.0000 0.5083
vn 0.3200 -0.9181 -0.2340
vn -0.8564 0.0000 -0.5163
vn 0.4081 -0.0000 0.9129
vn 0.3490 -0.0000 -0.9371
vn -0.2329 -0.9725 0.0060
vn -0.3389 0.9381 -0.0712
vn -0.1108 0.9935 0.0274
vn -0.1198 0.9928 0.0066
vn -0.2329 0.9725 0.0060
vn 1.0000 0.0000 0.0000
vn 0.4777 0.8785 0.0000
vn 0.4895 0.0000 -0.8720
vn 0.4261 0.7836 0.4521
vn 0.1132 0.0000 -0.9936
vn 0.0548 0.1008 -0.9934
vn 0.8896 0.0000 0.4568
vn 0.4261 -0.7836 0.4521
vn 0.0548 -0.1008 -0.9934
vn 0.4777 -0.8785 0.0000
vn 0.4750 -0.8797 0.0212
vn 0.2050 0.3779 -0.9029
vn 0.2050 -0.3779 -0.9029
vn 0.4597 -0.8514 0.2528
vn 0.9997 0.0000 0.0254
vn 0.4750 0.8797 0.0212
vn 0.4751 0.8799 -0.0000
vn 0.9545 0.0000 0.2983
vn 0.4597 0.8514 0.2528
vn 0.3572 0.9332 -0.0398
vn 0.4751 -0.8799 0.0000
vn 0.1546 -0.9880 0.0000
vn 0.3572 -0.9332 -0.0398
vn 0.4936 0.0000 -0.8697
vn 0.7726 0.0000 0.6349
vn 0.0795 0.0000 0.9968
vn -0.7957 0.0000 0.6056
vn -0.1226 0.9314 -0.3427
vn -0.6800 0.0000 -0.7332
vn -0.1226 -0.9314 -0.3427
vn -0.4424 0.0000 -0.8968
vn 0.9993 0.0000 0.0372
vn 0.5780 0.0000 0.8160
vn 0.6210 0.0000 -0.7838
vn 0.7628 0.0000 0.6467
vn -0.2188 0.0000 -0.9758
vn -0.3200 0.9181 -0.2340
vn 0.8850 0.0000 0.4656
vn -0.7310 0.0000 -0.6824
vn 0.0733 0.0000 0.9973
vn -0.8612 0.0000 0.5083
vn -0.3200 -0.9181 -0.2340
vn 0.8564 0.0000 -0.5163
vn -0.4081 -0.0000 0.9129
vn -0.3490 -0.0000 -0.9371
vn 0.1546 0.9880 -0.0000
vn 0.1299 0.9913 -0.0210
vn -1.0000 0.0000 0.0035
vn -0.7809 0.0000 0.6247
vn -0.1198 -0.9928 0.0066
vn -0.0871 -0.9951 0.0476
vn -0.6764 0.0000 -0.7366
vn -0.5423 0.0000 -0.8402
vn -0.8049 0.0000 -0.5935
vn -0.7003 0.0000 0.7138
vn 0.1299 -0.9913 -0.0210
vn -0.1108 -0.9935 0.0274
vn 0.1194 -0.9529 0.2788
vn -0.0871 0.9951 0.0476
vn 0.9701 0.0000 0.2426
vn -0.3726 0.0000 -0.9280
vn 0.2964 0.0000 0.9551
vn -0.2335 -0.9719 -0.0296
vn 0.9934 0.0000 0.1145
vn -0.0121 -0.9976 0.0677
vn -0.0349 -0.9166 -0.3982
vn -0.1759 0.9831 -0.0515
vn -0.1337 -0.9825 0.1300
vn -0.0349 0.9166 -0.3982
vn -0.2335 0.9719 -0.0296
vn -0.0804 -0.9965 0.0209
vn 0.0939 -0.9954 -0.0177
vn 0.0939 0.9954 -0.0177
vn -0.0804 0.9965 0.0209
vn 0.2747 0.9142 0.2978
vn -0.1179 0.9109 -0.3955
vn -0.3604 0.8663 -0.3460
vn 0.1452 0.9526 0.2675
vn -0.0121 0.9976 0.0677
vn -0.1759 -0.9831 -0.0515
vn -0.3604 -0.8663 -0.3460
vn -0.1337 0.9825 0.1300
vn 0.1194 0.9529 0.2788
vn -0.1179 -0.9109 -0.3955
vn 0.1452 -0.9526 0.2675
vn 0.2747 -0.9142 0.2978
usemtl Material
s off
f 1/1/1 2/2/1 4/3/1 3/4/1
f 67/5/2 68/6/2 2/2/2 1/1/2
f 4/3/3 2/2/3 9/7/3 10/8/3
f 70/9/4 5/10/4 7/11/4 72/12/4
f 1/13/5 3/14/5 6/15/5 5/16/5
f 67/17/6 1/18/6 5/10/6 70/9/6
f 5/16/7 6/15/7 8/19/7 7/20/7
f 6/15/8 69/21/8 71/22/8 8/19/8
f 8/23/9 71/24/9 72/25/9 7/26/9
f 3/14/10 65/27/10 69/21/10 6/15/10
f 3/4/11 4/3/11 66/28/11 65/29/11
f 75/30/12 10/31/12 12/32/12 79/33/12
f 2/2/13 68/6/13 76/34/13 9/7/13
f 66/28/14 4/3/14 10/8/14 75/35/14
f 79/33/15 12/32/15 14/36/15 83/37/15
f 10/31/16 9/38/16 11/39/16 12/32/16
f 9/38/17 76/40/17 80/41/17 11/39/17
f 13/42/18 84/43/18 88/44/18 15/45/18
f 12/32/19 11/39/19 13/46/19 14/36/19
f 11/39/20 80/41/20 84/47/20 13/46/20
f 15/48/21 88/49/21 92/50/21 17/51/21
f 83/52/22 14/53/22 16/54/22 87/55/22
f 13/56/23 15/57/23 21/58/23 19/59/23
f 91/60/24 18/61/24 54/62/24 130/63/24
f 87/64/25 16/65/25 18/66/25 91/67/25
f 18/68/26 16/69/26 36/70/26 34/71/26
f 13/72/23 19/73/23 25/74/23 23/75/23
f 16/76/26 14/77/26 20/78/26 22/79/26
f 19/73/23 21/80/23 27/81/23 25/74/23
f 15/57/27 16/76/27 22/79/27 21/58/27
f 26/82/28 25/74/28 27/81/28 28/83/28
f 24/84/29 23/75/29 25/74/29 26/82/29
f 22/85/26 20/86/26 26/82/26 28/83/26
f 14/87/30 13/88/30 23/89/30 24/90/30
f 27/81/31 21/80/31 29/91/31 30/92/31
f 20/86/26 14/93/26 24/84/26 26/82/26
f 29/91/32 31/94/32 32/95/32 30/92/32
f 22/85/33 28/83/33 32/95/33 31/94/33
f 21/80/34 22/85/34 31/94/34 29/91/34
f 28/83/35 27/81/35 30/92/35 32/95/35
f 34/71/26 36/70/26 40/96/26 38/97/26
f 16/98/36 15/99/36 35/100/36 36/101/36
f 15/102/23 17/103/23 33/104/23 35/105/23
f 17/106/37 18/107/37 34/108/37 33/109/37
f 38/97/26 40/96/26 44/110/26 42/111/26
f 36/101/38 35/100/38 39/112/38 40/113/38
f 35/105/23 33/104/23 37/114/23 39/115/23
f 33/109/39 34/108/39 38/116/39 37/117/39
f 43/118/40 41/119/40 45/120/40 47/121/40
f 40/113/41 39/112/41 43/122/41 44/123/41
f 39/115/23 37/114/23 41/119/23 43/118/23
f 37/117/42 38/116/42 42/124/42 41/125/42
f 45/126/43 46/127/43 50/128/43 49/129/43
f 41/125/44 42/124/44 46/127/44 45/126/44
f 42/111/45 44/110/45 48/130/45 46/131/45
f 44/123/46 43/122/46 47/132/46 48/133/46
f 52/134/47 51/135/47 49/129/47 50/128/47
f 46/131/26 48/130/26 52/136/26 50/137/26
f 48/133/48 47/132/48 51/135/48 52/134/48
f 47/121/23 45/120/23 49/138/23 51/139/23
f 130/140/49 54/141/49 56/142/49 134/143/49
f 18/61/1 17/144/1 53/145/1 54/62/1
f 17/144/50 92/146/50 129/147/50 53/145/50
f 155/148/51 154/149/51 141/150/51 139/151/51
f 53/152/52 55/153/52 137/154/52 135/155/52
f 53/156/53 129/157/53 133/158/53 55/159/53
f 57/160/54 59/161/54 60/162/54 58/163/54
f 67/5/55 57/160/55 58/163/55 68/6/55
f 60/162/56 74/164/56 73/165/56 58/163/56
f 70/9/57 72/12/57 63/166/57 61/167/57
f 57/168/58 61/169/58 62/170/58 59/171/58
f 67/17/59 70/9/59 61/167/59 57/172/59
f 61/169/60 63/173/60 64/174/60 62/170/60
f 62/170/61 64/174/61 71/22/61 69/21/61
f 64/175/9 63/176/9 72/25/9 71/24/9
f 59/171/62 62/170/62 69/21/62 65/27/62
f 59/161/63 65/29/63 66/28/63 60/162/63
f 75/30/64 79/33/64 78/177/64 74/178/64
f 58/163/65 73/165/65 76/34/65 68/6/65
f 66/28/66 75/35/66 74/164/66 60/162/66
f 79/33/67 83/37/67 82/179/67 78/177/67
f 74/178/68 78/177/68 77/180/68 73/181/68
f 73/181/69 77/180/69 80/41/69 76/40/69
f 81/182/70 85/183/70 88/44/70 84/43/70
f 78/177/71 82/179/71 81/184/71 77/180/71
f 77/180/72 81/184/72 84/47/72 80/41/72
f 85/185/73 89/186/73 92/50/73 88/49/73
f 83/52/74 87/55/74 86/187/74 82/188/74
f 81/189/23 93/190/23 95/191/23 85/192/23
f 91/60/75 130/63/75 128/193/75 90/194/75
f 87/64/76 91/67/76 90/195/76 86/196/76
f 90/197/26 108/198/26 110/199/26 86/200/26
f 81/201/23 97/202/23 99/203/23 93/204/23
f 86/205/26 96/206/26 94/207/26 82/208/26
f 93/204/23 99/203/23 101/209/23 95/210/23
f 85/192/77 95/191/77 96/206/77 86/205/77
f 100/211/78 102/212/78 101/209/78 99/203/78
f 98/213/79 100/211/79 99/203/79 97/202/79
f 96/214/26 102/212/26 100/211/26 94/215/26
f 82/216/80 98/217/80 97/218/80 81/219/80
f 101/209/81 104/220/81 103/221/81 95/210/81
f 94/215/26 100/211/26 98/213/26 82/222/26
f 103/221/82 104/220/82 106/223/82 105/224/82
f 96/214/83 105/224/83 106/223/83 102/212/83
f 95/210/84 103/221/84 105/224/84 96/214/84
f 102/212/85 106/223/85 104/220/85 101/209/85
f 108/198/26 112/225/26 114/226/26 110/199/26
f 86/227/86 110/228/86 109/229/86 85/230/86
f 85/231/23 109/232/23 107/233/23 89/234/23
f 89/235/87 107/236/87 108/237/87 90/238/87
f 112/225/26 116/239/26 118/240/26 114/226/26
f 110/228/88 114/241/88 113/242/88 109/229/88
f 109/232/23 113/243/23 111/244/23 107/233/23
f 107/236/89 111/245/89 112/246/89 108/237/89
f 117/247/90 121/248/90 119/249/90 115/250/90
f 114/241/91 118/251/91 117/252/91 113/242/91
f 113/243/23 117/247/23 115/250/23 111/244/23
f 111/245/92 115/253/92 116/254/92 112/246/92
f 119/255/93 123/256/93 124/257/93 120/258/93
f 115/253/94 119/255/94 120/258/94 116/254/94
f 116/239/95 120/259/95 122/260/95 118/240/95
f 118/251/96 122/261/96 121/262/96 117/252/96
f 126/263/97 124/257/97 123/256/97 125/264/97
f 120/259/26 124/265/26 126/266/26 122/260/26
f 122/261/98 126/263/98 125/264/98 121/262/98
f 121/248/23 125/267/23 123/268/23 119/249/23
f 130/140/75 134/143/75 132/269/75 128/270/75
f 90/194/54 128/193/54 127/271/54 89/272/54
f 89/272/99 127/271/99 129/147/99 92/146/99
f 154/149/100 153/273/100 143/274/100 141/150/100
f 128/270/54 132/269/54 131/275/54 127/276/54
f 127/276/99 131/275/99 133/158/99 129/157/99
f 136/277/101 135/155/101 137/154/101 138/278/101
f 54/279/102 53/152/102 135/155/102 136/277/102
f 56/280/103 54/279/103 136/277/103 138/278/103
f 151/281/104 152/282/104 146/283/104 140/284/104
f 142/285/105 140/284/105 139/151/105 141/150/105
f 142/285/106 141/150/106 143/274/106 144/286/106
f 139/151/107 140/284/107 146/283/107 145/287/107
f 152/282/108 156/288/108 145/287/108 146/283/108
f 158/289/109 157/290/109 142/285/109 144/286/109
f 157/290/110 151/281/110 140/284/110 142/285/110
f 158/291/111 160/292/111 173/293/111 172/294/111
f 156/288/112 155/148/112 139/151/112 145/287/112
f 159/295/113 160/296/113 150/297/113 149/298/113
f 144/286/114 143/274/114 149/298/114 150/297/114
f 158/289/26 144/286/26 150/297/26 160/296/26
f 131/299/115 132/300/115 148/301/115 147/302/115
f 160/303/116 148/304/116 174/305/116 173/306/116
f 147/307/117 148/304/117 160/303/117 159/308/117
f 152/309/118 151/310/118 161/311/118 176/312/118
f 143/274/23 153/273/23 159/295/23 149/298/23
f 132/300/119 134/313/119 165/314/119 167/315/119
f 137/154/120 55/153/120 164/316/120 168/317/120
f 138/278/108 137/154/108 156/318/108 152/309/108
f 138/278/121 152/309/121 176/312/121 169/319/121
f 133/320/122 131/299/122 166/321/122 163/322/122
f 147/307/123 159/308/123 180/323/123 175/324/123
f 177/325/23 166/326/23 175/327/23 180/328/23
f 167/329/26 172/330/26 173/331/26 174/332/26
f 168/317/23 164/316/23 171/333/23 178/334/23
f 165/335/124 162/336/124 161/337/124 179/338/124
f 167/329/125 165/335/125 179/338/125 172/330/125
f 162/339/26 169/319/26 176/312/26 161/311/26
f 163/340/126 166/326/126 177/325/126 170/341/126
f 164/342/127 163/340/127 170/341/127 171/343/127
f 153/344/128 154/345/128 170/346/128 177/347/128
f 131/299/129 147/302/129 175/348/129 166/321/129
f 55/153/130 133/320/130 163/322/130 164/316/130
f 154/345/131 155/349/131 171/333/131 170/346/131
f 155/349/132 156/318/132 178/334/132 171/333/132
f 56/280/133 138/278/133 169/319/133 162/339/133
f 134/313/134 56/280/134 162/339/134 165/314/134
f 156/318/135 137/154/135 168/317/135 178/334/135
f 159/350/136 153/344/136 177/347/136 180/351/136
f 148/301/137 132/300/137 167/315/137 174/352/137
f 151/310/138 157/353/138 179/354/138 161/311/138
f 157/353/139 158/291/139 172/294/139 179/354/139
