# Blender v2.82 (sub 7) OBJ File: '34.blend'
# www.blender.org
mtllib 34.mtl
o Weapon34_Cube.001
v -0.027055 0.044645 -0.096988
v -0.027055 -0.044645 -0.096988
v 0.024627 0.044645 -0.063916
v 0.024627 -0.044645 -0.063916
v 0.010097 0.032238 -0.161357
v 0.010097 -0.032238 -0.161357
v 0.047416 0.032238 -0.108779
v 0.047416 -0.032238 -0.108779
v 0.064641 0.032238 -0.183141
v 0.064641 -0.032238 -0.183141
v 0.088205 0.032238 -0.123124
v 0.088204 -0.032238 -0.123124
v 0.104230 0.029320 -0.222170
v 0.104230 -0.029320 -0.222170
v 0.161913 0.029320 -0.200803
v 0.161913 -0.029320 -0.200803
v 0.157102 0.029319 -0.291327
v 0.157102 -0.029320 -0.291327
v 0.183671 0.029319 -0.239052
v 0.183671 -0.029320 -0.239052
v 0.214237 0.021412 -0.305394
v 0.214237 -0.021413 -0.305394
v 0.217082 0.021412 -0.250244
v 0.217082 -0.021413 -0.250244
v 0.290985 0.021412 -0.263196
v 0.290985 -0.021413 -0.263196
v 0.264614 0.021412 -0.231211
v 0.264614 -0.021413 -0.231211
v 0.319755 0.021412 -0.195931
v 0.319755 -0.021413 -0.195931
v 0.276972 0.021412 -0.197828
v 0.276972 -0.021413 -0.197828
v 0.293569 0.022658 -0.136732
v 0.293569 -0.022659 -0.136732
v 0.263572 0.022658 -0.168819
v 0.263572 -0.022659 -0.168819
v 0.231617 0.022742 -0.109714
v 0.231617 -0.022744 -0.109714
v 0.220520 0.022742 -0.152116
v 0.220520 -0.022744 -0.152116
v 0.175464 0.022764 -0.118032
v 0.175464 -0.022766 -0.118032
v 0.189060 0.022764 -0.161484
v 0.189060 -0.022766 -0.161484
v 0.009785 0.018616 -0.295351
v 0.009785 -0.018616 -0.295351
v 0.050685 0.018616 -0.353511
v 0.050685 -0.018616 -0.353511
v -0.067609 0.018616 -0.417647
v -0.067609 -0.018616 -0.417647
v -0.001342 0.018616 -0.432160
v -0.001342 -0.018616 -0.432160
v -0.054020 0.025579 -0.545582
v -0.054020 -0.025579 -0.545582
v 0.018988 0.025579 -0.509257
v 0.018988 -0.025579 -0.509257
v -0.001639 0.025579 -0.593060
v -0.001639 -0.025579 -0.593060
v 0.049365 0.025579 -0.536790
v 0.049365 -0.025579 -0.536790
v 0.029613 0.025579 -0.621387
v 0.029613 -0.025579 -0.621387
v 0.080616 0.025579 -0.565117
v 0.080616 -0.025579 -0.565117
v 0.161106 0.025579 -0.437116
v 0.161106 -0.025579 -0.437117
v 0.176228 0.025579 -0.476492
v 0.176228 -0.025579 -0.476492
v 0.288270 0.037913 -0.404361
v 0.288270 -0.037914 -0.404361
v 0.290865 0.037913 -0.466825
v 0.290864 -0.037914 -0.466825
v -0.122887 0.029187 -0.756562
v -0.122887 -0.029186 -0.756562
v -0.085383 0.029187 -0.786723
v -0.085383 -0.029186 -0.786723
v -0.219070 0.049713 -0.829603
v -0.219070 -0.049711 -0.829603
v -0.211987 0.049713 -0.911270
v -0.211987 -0.049711 -0.911270
v -0.334874 0.053753 -0.828730
v -0.334875 -0.053751 -0.828730
v -0.327215 0.053753 -0.917035
v -0.327216 -0.053751 -0.917035
v 0.172792 -0.045740 -0.219928
v 0.172792 0.045739 -0.219928
v 0.130666 0.045739 -0.256749
v 0.130666 -0.045740 -0.256749
v 0.030235 0.029041 -0.324431
v 0.030235 -0.029042 -0.324431
v -0.034476 0.029042 -0.424903
v -0.034476 -0.029042 -0.424903
v -0.017516 0.039904 -0.527419
v -0.017516 -0.039904 -0.527420
v 0.023863 0.039904 -0.564925
v 0.023863 -0.039904 -0.564925
v 0.055115 0.039904 -0.593252
v 0.055115 -0.039904 -0.593252
v -0.027055 0.044645 0.096988
v -0.027055 -0.044645 0.096988
v 0.024627 0.044645 0.063916
v 0.024627 -0.044645 0.063916
v -0.047633 0.044645 -0.000000
v -0.047633 -0.044645 0.000000
v 0.042141 -0.044645 0.000000
v 0.042141 0.044645 -0.000000
v 0.010097 0.032238 0.161357
v 0.010097 -0.032238 0.161357
v 0.047416 0.032238 0.108779
v 0.047416 -0.032238 0.108779
v 0.064641 0.032238 0.183141
v 0.064641 -0.032238 0.183141
v 0.088205 0.032238 0.123124
v 0.088204 -0.032238 0.123124
v 0.104230 0.029320 0.222170
v 0.104230 -0.029320 0.222170
v 0.161913 0.029320 0.200803
v 0.161913 -0.029320 0.200803
v 0.157102 0.029319 0.291327
v 0.157102 -0.029320 0.291327
v 0.183671 0.029319 0.239052
v 0.183671 -0.029320 0.239052
v 0.214237 0.021412 0.305394
v 0.214237 -0.021413 0.305394
v 0.217082 0.021412 0.250244
v 0.217082 -0.021413 0.250244
v 0.290985 0.021412 0.263196
v 0.290985 -0.021413 0.263196
v 0.264614 0.021412 0.231211
v 0.264614 -0.021413 0.231211
v 0.319755 0.021412 0.195931
v 0.319755 -0.021413 0.195931
v 0.276972 0.021412 0.197828
v 0.276972 -0.021413 0.197828
v 0.293569 0.022658 0.136732
v 0.293569 -0.022659 0.136732
v 0.263572 0.022658 0.168819
v 0.263572 -0.022659 0.168819
v 0.231617 0.022742 0.109714
v 0.231617 -0.022744 0.109714
v 0.220520 0.022742 0.152116
v 0.220520 -0.022744 0.152116
v 0.175464 0.022764 0.118032
v 0.175464 -0.022766 0.118032
v 0.189060 0.022764 0.161484
v 0.189060 -0.022766 0.161484
v 0.009785 0.018616 0.295351
v 0.009785 -0.018616 0.295351
v 0.050685 0.018616 0.353511
v 0.050685 -0.018616 0.353511
v -0.067609 0.018616 0.417647
v -0.067609 -0.018616 0.417647
v -0.001342 0.018616 0.432160
v -0.001342 -0.018616 0.432160
v -0.054020 0.025579 0.545582
v -0.054020 -0.025579 0.545582
v 0.018988 0.025579 0.509257
v 0.018988 -0.025579 0.509257
v -0.001639 0.025579 0.593060
v -0.001639 -0.025579 0.593060
v 0.049365 0.025579 0.536790
v 0.049365 -0.025579 0.536790
v 0.029613 0.025579 0.621387
v 0.029613 -0.025579 0.621387
v 0.080616 0.025579 0.565117
v 0.080616 -0.025579 0.565117
v 0.161106 0.025579 0.437116
v 0.161106 -0.025579 0.437117
v 0.176228 0.025579 0.476492
v 0.176228 -0.025579 0.476492
v 0.288270 0.037913 0.404361
v 0.288270 -0.037914 0.404361
v 0.290865 0.037913 0.466825
v 0.290864 -0.037913 0.466825
v -0.122887 0.029187 0.756562
v -0.122887 -0.029186 0.756562
v -0.085383 0.029187 0.786723
v -0.085383 -0.029186 0.786723
v -0.219070 0.049713 0.829603
v -0.219070 -0.049711 0.829603
v -0.211987 0.049713 0.911270
v -0.211987 -0.049711 0.911270
v -0.334874 0.053753 0.828730
v -0.334875 -0.053751 0.828730
v -0.327215 0.053754 0.917035
v -0.327216 -0.053751 0.917035
v 0.172792 -0.045740 0.219928
v 0.172792 0.045739 0.219928
v 0.130666 0.045739 0.256749
v 0.130666 -0.045740 0.256749
v 0.030235 0.029041 0.324431
v 0.030235 -0.029042 0.324431
v -0.034476 0.029042 0.424903
v -0.034476 -0.029042 0.424903
v -0.017516 0.039904 0.527419
v -0.017516 -0.039904 0.527420
v 0.023863 0.039904 0.564925
v 0.023863 -0.039904 0.564925
v 0.055115 0.039904 0.593252
v 0.055115 -0.039904 0.593252
vt 0.137912 0.544071
vt 0.137958 0.545090
vt 0.137815 0.545115
vt 0.137468 0.545045
vt 0.138039 0.545325
vt 0.138052 0.545458
vt 0.138058 0.545243
vt 0.138394 0.544909
vt 0.137905 0.545412
vt 0.138031 0.545464
vt 0.137954 0.545633
vt 0.138012 0.545651
vt 0.137991 0.545493
vt 0.137993 0.545449
vt 0.138606 0.544071
vt 0.138606 0.544198
vt 0.138394 0.544193
vt 0.138394 0.544077
vt 0.138006 0.545757
vt 0.137984 0.545748
vt 0.138032 0.546206
vt 0.137997 0.546206
vt 0.138006 0.546275
vt 0.138029 0.546278
vt 0.138026 0.546108
vt 0.138023 0.546151
vt 0.138001 0.546154
vt 0.137994 0.546113
vt 0.669727 0.178982
vt 0.669747 0.178882
vt 0.669738 0.178907
vt 0.669739 0.178935
vt 0.138012 0.546299
vt 0.138010 0.546378
vt 0.138033 0.547253
vt 0.138017 0.547152
vt 0.138026 0.546296
vt 0.138035 0.546371
vt 0.669737 0.178912
vt 0.669738 0.178915
vt 0.669724 0.178879
vt 0.669753 0.178974
vt 0.669738 0.178935
vt 0.669737 0.178908
vt 0.669737 0.178915
vt 0.669737 0.178912
vt 0.669737 0.178913
vt 0.669738 0.178913
vt 0.669737 0.178913
vt 0.669737 0.178913
vt 0.669737 0.178913
vt 0.669737 0.178913
vt 0.669737 0.178913
vt 0.669737 0.178913
vt 0.669737 0.178913
vt 0.669737 0.178913
vt 0.669737 0.178913
vt 0.669737 0.178913
vt 0.669737 0.178913
vt 0.669737 0.178913
vt 0.669737 0.178913
vt 0.669737 0.178913
vt 0.669737 0.178913
vt 0.669737 0.178913
vt 0.669737 0.178913
vt 0.669737 0.178913
vt 0.680674 0.178201
vt 0.680636 0.178095
vt 0.680716 0.179669
vt 0.680755 0.179645
vt 0.138067 0.547041
vt 0.138105 0.547147
vt 0.138100 0.547260
vt 0.138072 0.548596
vt 0.138090 0.548565
vt 0.138150 0.549349
vt 0.138137 0.549396
vt 0.138044 0.547054
vt 0.680585 0.178206
vt 0.680601 0.178306
vt 0.680659 0.179618
vt 0.680641 0.179649
vt 0.680669 0.178313
vt 0.680735 0.179624
vt 0.138175 0.549526
vt 0.138171 0.549603
vt 0.680612 0.178107
vt 0.680682 0.179676
vt 0.138186 0.548592
vt 0.138148 0.548615
vt 0.138185 0.549432
vt 0.138200 0.549394
vt 0.138113 0.548623
vt 0.138156 0.549428
vt 0.138185 0.549602
vt 0.138186 0.549757
vt 0.138209 0.549877
vt 0.138186 0.549702
vt 0.138166 0.548570
vt 0.138183 0.549342
vt 0.138186 0.549752
vt 0.138174 0.549524
vt 0.138183 0.549610
vt 0.138179 0.549705
vt 0.138175 0.549873
vt 0.138312 0.552522
vt 0.138341 0.552551
vt 0.138172 0.549604
vt 0.138176 0.549574
vt 0.138176 0.549576
vt 0.138176 0.549576
vt 0.138177 0.549574
vt 0.138176 0.549575
vt 0.138176 0.549575
vt 0.138176 0.549575
vt 0.138176 0.549575
vt 0.138292 0.552537
vt 0.138326 0.552540
vt 0.731427 0.181930
vt 0.731370 0.181759
vt 0.731426 0.182145
vt 0.731442 0.182492
vt 0.138321 0.553338
vt 0.138378 0.553509
vt 0.138362 0.553445
vt 0.138392 0.553281
vt 0.731429 0.182014
vt 0.731428 0.182120
vt 0.731441 0.181703
vt 0.731410 0.181867
vt 0.137815 0.545115
vt 0.137958 0.545090
vt 0.138039 0.545325
vt 0.138058 0.545243
vt 0.138031 0.545464
vt 0.137905 0.545412
vt 0.138012 0.545651
vt 0.137954 0.545633
vt 0.137991 0.545493
vt 0.137993 0.545449
vt 0.138606 0.544071
vt 0.138394 0.544077
vt 0.138394 0.544193
vt 0.138606 0.544198
vt 0.138006 0.545757
vt 0.137984 0.545748
vt 0.138032 0.546206
vt 0.138029 0.546278
vt 0.138006 0.546275
vt 0.137997 0.546206
vt 0.138023 0.546151
vt 0.138026 0.546108
vt 0.137994 0.546113
vt 0.138001 0.546154
vt 0.669727 0.178982
vt 0.669739 0.178935
vt 0.669738 0.178907
vt 0.669747 0.178882
vt 0.138012 0.546299
vt 0.138017 0.547152
vt 0.138033 0.547253
vt 0.138010 0.546378
vt 0.138035 0.546371
vt 0.138026 0.546296
vt 0.669738 0.178915
vt 0.669737 0.178912
vt 0.669724 0.178879
vt 0.669737 0.178908
vt 0.669738 0.178935
vt 0.669753 0.178974
vt 0.669737 0.178912
vt 0.669737 0.178915
vt 0.669738 0.178913
vt 0.669737 0.178913
vt 0.669737 0.178913
vt 0.669737 0.178913
vt 0.669737 0.178913
vt 0.669737 0.178913
vt 0.669737 0.178913
vt 0.669737 0.178913
vt 0.669737 0.178913
vt 0.669737 0.178913
vt 0.669737 0.178913
vt 0.669737 0.178913
vt 0.669737 0.178913
vt 0.669737 0.178913
vt 0.669737 0.178913
vt 0.669737 0.178913
vt 0.669737 0.178913
vt 0.669737 0.178913
vt 0.669737 0.178913
vt 0.669737 0.178913
vt 0.680674 0.178201
vt 0.680755 0.179645
vt 0.680716 0.179669
vt 0.680636 0.178095
vt 0.138105 0.547147
vt 0.138067 0.547041
vt 0.138100 0.547260
vt 0.138072 0.548596
vt 0.138137 0.549396
vt 0.138150 0.549349
vt 0.138090 0.548565
vt 0.138044 0.547054
vt 0.680585 0.178206
vt 0.680641 0.179649
vt 0.680659 0.179618
vt 0.680601 0.178306
vt 0.680735 0.179624
vt 0.680669 0.178313
vt 0.138171 0.549603
vt 0.138175 0.549526
vt 0.680682 0.179676
vt 0.680612 0.178107
vt 0.138186 0.548592
vt 0.138200 0.549394
vt 0.138185 0.549432
vt 0.138148 0.548615
vt 0.138156 0.549428
vt 0.138113 0.548623
vt 0.138185 0.549602
vt 0.138186 0.549702
vt 0.138209 0.549877
vt 0.138186 0.549757
vt 0.138183 0.549342
vt 0.138166 0.548570
vt 0.138186 0.549752
vt 0.138174 0.549524
vt 0.138179 0.549705
vt 0.138183 0.549610
vt 0.138341 0.552551
vt 0.138312 0.552522
vt 0.138175 0.549873
vt 0.138172 0.549604
vt 0.138176 0.549576
vt 0.138176 0.549574
vt 0.138177 0.549574
vt 0.138176 0.549576
vt 0.138176 0.549575
vt 0.138176 0.549575
vt 0.138176 0.549575
vt 0.138176 0.549575
vt 0.138326 0.552540
vt 0.138292 0.552537
vt 0.731427 0.181930
vt 0.731442 0.182492
vt 0.731426 0.182145
vt 0.731370 0.181759
vt 0.138378 0.553509
vt 0.138321 0.553338
vt 0.138362 0.553445
vt 0.138392 0.553281
vt 0.731428 0.182120
vt 0.731429 0.182014
vt 0.731441 0.181703
vt 0.731410 0.181867
vn -0.0000 -1.0000 0.0000
vn 0.9644 -0.0000 -0.2643
vn 0.0000 1.0000 -0.0000
vn 0.8916 -0.0000 0.4529
vn 0.3318 -0.0000 0.9434
vn -0.9782 0.0000 -0.2075
vn 0.1401 0.9794 -0.1456
vn 0.1401 -0.9794 -0.1456
vn 0.7254 -0.0000 0.6883
vn -0.8661 0.0000 -0.4999
vn 0.8692 -0.0000 0.4944
vn -0.3709 0.0000 -0.9287
vn 0.0254 0.9994 -0.0253
vn 0.0254 -0.9994 -0.0253
vn 0.1600 0.9861 -0.0438
vn 0.0849 0.9390 -0.3334
vn 0.3691 0.8848 -0.2846
vn 0.3691 -0.8848 -0.2846
vn 0.1600 -0.9861 -0.0438
vn 0.3176 -0.0000 0.9482
vn -0.7021 0.0000 -0.7121
vn -0.2391 0.0000 -0.9710
vn -0.3717 -0.0000 0.9283
vn -0.9078 -0.0000 -0.4193
vn -0.9378 -0.0000 0.3472
vn 0.3998 0.0000 0.9166
vn 0.9194 0.0000 -0.3933
vn 0.0109 0.9997 -0.0233
vn 0.0109 -0.9997 -0.0233
vn -0.3617 -0.0000 -0.9323
vn 0.0013 1.0000 -0.0007
vn 0.0013 -1.0000 -0.0007
vn 0.2854 -0.0000 -0.9584
vn 0.1158 0.9915 0.0596
vn 0.9145 0.0000 0.4045
vn 0.0005 1.0000 0.0000
vn 0.0005 -1.0000 0.0000
vn 0.1158 -0.9915 0.0596
vn 0.8229 -0.0000 -0.5682
vn -0.0583 0.0000 0.9983
vn -0.2585 -0.9518 0.1649
vn -0.1465 0.0000 0.9892
vn -0.2737 -0.9417 0.1955
vn 0.5045 -0.0000 -0.8634
vn 0.3088 0.9381 0.1572
vn -0.6125 0.0000 0.7905
vn 0.2569 0.9518 -0.1674
vn 0.8340 -0.0000 -0.5517
vn 0.2370 0.9356 0.2615
vn -0.8450 0.0000 0.5348
vn -0.3386 -0.9405 0.0279
vn -0.9944 0.0000 -0.1056
vn -0.2370 -0.9356 -0.2615
vn 0.9669 -0.0000 0.2550
vn -0.6716 0.0000 -0.7409
vn 0.6716 -0.0000 0.7409
vn 0.0116 0.9998 0.0136
vn 0.7409 0.0000 -0.6716
vn -0.0985 0.9950 -0.0171
vn 0.6798 0.0000 -0.7334
vn 0.9991 -0.0000 0.0415
vn -0.0985 -0.9950 -0.0171
vn 0.0840 0.0000 -0.9965
vn 0.0116 -0.9998 0.0136
vn -0.2494 -0.0000 0.9684
vn 0.8210 0.0000 -0.5710
vn 0.0349 -0.9994 0.0030
vn 0.1347 -0.9894 0.0537
vn 0.7013 0.0000 -0.7129
vn 0.1347 0.9894 0.0537
vn -0.6048 -0.0000 0.7964
vn -0.9963 0.0000 -0.0864
vn 0.0349 0.9994 0.0030
vn 0.0075 -0.0000 1.0000
vn 0.0500 0.0000 -0.9988
vn 0.4818 -0.0000 -0.8763
vn -0.8032 -0.0000 0.5957
vn -0.2370 0.9356 -0.2615
vn -0.6657 -0.0000 0.7463
vn 0.2370 -0.9356 0.2615
vn 0.3088 -0.9381 0.1572
vn -0.2585 0.9518 0.1649
vn -0.3386 0.9405 0.0279
vn 0.0849 -0.9390 -0.3334
vn 0.2569 -0.9518 -0.1674
vn -0.2266 -0.8931 0.3887
vn -0.2266 0.8931 0.3887
vn -0.2737 0.9417 0.1955
vn 0.9644 -0.0000 0.2643
vn 0.8916 -0.0000 -0.4529
vn 0.3318 -0.0000 -0.9434
vn -0.9782 0.0000 0.2075
vn 0.1401 0.9794 0.1456
vn 0.1401 -0.9794 0.1456
vn 0.7254 -0.0000 -0.6883
vn -0.8661 0.0000 0.4999
vn 0.8692 -0.0000 -0.4944
vn -0.3709 0.0000 0.9287
vn 0.0254 0.9994 0.0253
vn 0.0254 -0.9994 0.0253
vn 0.1600 0.9861 0.0438
vn 0.0849 0.9390 0.3334
vn 0.3691 0.8848 0.2846
vn 0.3691 -0.8848 0.2846
vn 0.1600 -0.9861 0.0438
vn 0.3176 -0.0000 -0.9482
vn -0.7021 0.0000 0.7121
vn -0.2391 0.0000 0.9710
vn -0.3717 -0.0000 -0.9283
vn -0.9078 -0.0000 0.4193
vn -0.9378 -0.0000 -0.3472
vn 0.3998 0.0000 -0.9166
vn 0.9194 0.0000 0.3933
vn 0.0109 0.9997 0.0233
vn 0.0109 -0.9997 0.0233
vn -0.3617 -0.0000 0.9323
vn 0.0013 1.0000 0.0007
vn 0.0013 -1.0000 0.0007
vn 0.2854 -0.0000 0.9584
vn 0.1158 0.9915 -0.0596
vn 0.9145 0.0000 -0.4045
vn 0.1158 -0.9915 -0.0596
vn 0.8229 -0.0000 0.5682
vn -0.0583 0.0000 -0.9983
vn -0.2585 -0.9518 -0.1649
vn -0.1465 0.0000 -0.9892
vn -0.2737 -0.9417 -0.1955
vn 0.5045 -0.0000 0.8634
vn 0.3088 0.9381 -0.1572
vn -0.6125 0.0000 -0.7905
vn 0.2569 0.9518 0.1674
vn 0.8340 -0.0000 0.5517
vn 0.2370 0.9356 -0.2615
vn -0.8450 0.0000 -0.5348
vn -0.3386 -0.9405 -0.0279
vn -0.9944 0.0000 0.1056
vn -0.2370 -0.9356 0.2615
vn 0.9669 -0.0000 -0.2550
vn -0.6716 0.0000 0.7409
vn 0.6716 -0.0000 -0.7409
vn 0.0116 0.9998 -0.0136
vn 0.7409 0.0000 0.6716
vn -0.0985 0.9950 0.0171
vn 0.6798 0.0000 0.7334
vn 0.9991 -0.0000 -0.0415
vn -0.0985 -0.9950 0.0171
vn 0.0840 0.0000 0.9965
vn 0.0116 -0.9998 -0.0136
vn -0.2494 -0.0000 -0.9684
vn 0.8210 0.0000 0.5710
vn 0.0349 -0.9994 -0.0030
vn 0.1347 -0.9894 -0.0537
vn 0.7013 0.0000 0.7129
vn 0.1347 0.9894 -0.0537
vn -0.6048 -0.0000 -0.7964
vn -0.9963 0.0000 0.0864
vn 0.0349 0.9994 -0.0030
vn 0.0075 -0.0000 -1.0000
vn 0.0500 0.0000 0.9988
vn 0.4818 -0.0000 0.8763
vn -0.8032 -0.0000 -0.5957
vn -0.2370 0.9356 0.2615
vn -0.6657 -0.0000 -0.7463
vn 0.2370 -0.9356 -0.2615
vn 0.3088 -0.9381 -0.1572
vn -0.2585 0.9518 -0.1649
vn -0.3386 0.9405 -0.0279
vn 0.0849 -0.9390 0.3334
vn 0.2569 -0.9518 0.1674
vn -0.2266 -0.8931 -0.3887
vn -0.2266 0.8931 -0.3887
vn -0.2737 0.9417 -0.1955
usemtl Material
s off
f 104/1/1 2/2/1 4/3/1 105/4/1
f 105/4/2 4/3/2 3/5/2 106/6/2
f 106/6/3 3/5/3 1/7/3 103/8/3
f 3/5/4 4/3/4 8/9/4 7/10/4
f 7/10/5 8/9/5 12/11/5 11/12/5
f 103/8/6 1/7/6 2/2/6 104/1/6
f 1/7/7 3/5/7 7/10/7 5/13/7
f 4/3/8 2/2/8 6/14/8 8/9/8
f 11/15/9 12/16/9 16/17/9 15/18/9
f 2/2/10 1/7/10 5/13/10 6/14/10
f 5/13/3 7/10/3 11/12/3 9/19/3
f 8/9/1 6/14/1 10/20/1 12/11/1
f 86/21/11 85/22/11 20/23/11 19/24/11
f 6/14/12 5/13/12 9/19/12 10/20/12
f 9/19/13 11/12/13 15/25/13 13/26/13
f 12/11/14 10/20/14 14/27/14 16/28/14
f 17/29/15 19/30/15 23/31/15 21/32/15
f 87/33/16 17/34/16 47/35/16 89/36/16
f 87/33/17 86/21/17 19/24/17 17/34/17
f 85/22/18 88/37/18 18/38/18 20/23/18
f 23/31/3 27/39/3 25/40/3 21/32/3
f 20/41/19 18/42/19 22/43/19 24/44/19
f 19/30/20 20/41/20 24/44/20 23/31/20
f 10/20/21 9/19/21 13/26/21 14/27/21
f 22/43/1 26/45/1 28/46/1 24/44/1
f 18/42/22 17/29/22 21/32/22 22/43/22
f 24/44/23 28/46/23 27/39/23 23/31/23
f 25/40/3 27/39/3 31/47/3 29/48/3
f 31/47/24 32/49/24 36/50/24 35/51/24
f 28/46/1 26/45/1 30/52/1 32/49/1
f 27/39/25 28/46/25 32/49/25 31/47/25
f 33/53/26 37/54/26 38/55/26 34/56/26
f 26/45/27 25/40/27 29/48/27 30/52/27
f 29/48/28 31/47/28 35/51/28 33/53/28
f 32/49/29 30/52/29 34/56/29 36/50/29
f 36/50/30 40/57/30 39/58/30 35/51/30
f 35/51/31 39/58/31 37/54/31 33/53/31
f 36/50/32 34/56/32 38/55/32 40/57/32
f 39/58/33 40/57/33 44/59/33 43/60/33
f 41/61/34 43/60/34 15/62/34 11/63/34
f 30/52/35 29/48/35 33/53/35 34/56/35
f 37/54/36 39/58/36 43/60/36 41/61/36
f 40/57/37 38/55/37 42/64/37 44/59/37
f 44/59/38 42/64/38 12/65/38 16/66/38
f 43/60/39 44/59/39 16/66/39 15/62/39
f 42/64/40 41/61/40 11/63/40 12/65/40
f 90/67/41 46/68/41 50/69/41 92/70/41
f 38/55/42 37/54/42 41/61/42 42/64/42
f 88/37/43 14/27/43 46/71/43 90/72/43
f 17/34/44 18/38/44 48/73/44 47/35/44
f 91/74/45 51/75/45 55/76/45 93/77/45
f 14/27/46 13/26/46 45/78/46 46/71/46
f 89/79/47 47/80/47 51/81/47 91/82/47
f 47/80/48 48/83/48 52/84/48 51/81/48
f 93/77/49 55/76/49 59/85/49 95/86/49
f 46/68/50 45/87/50 49/88/50 50/69/50
f 92/89/51 50/90/51 54/91/51 94/92/51
f 50/90/52 49/93/52 53/94/52 54/91/52
f 96/95/53 58/96/53 62/97/53 98/98/53
f 51/75/54 52/99/54 56/100/54 55/76/54
f 94/92/53 54/91/53 58/96/53 96/95/53
f 54/91/55 53/94/55 57/101/55 58/96/55
f 55/76/56 56/100/56 60/102/56 59/85/56
f 95/86/49 59/85/49 63/103/49 97/104/49
f 57/101/57 61/105/57 75/106/57 73/107/57
f 98/98/58 97/104/58 63/103/58 64/108/58
f 59/85/3 65/109/3 67/110/3 63/103/3
f 64/108/1 68/111/1 66/112/1 60/102/1
f 67/110/59 65/109/59 69/113/59 71/114/59
f 63/103/60 67/110/60 68/111/60 64/108/60
f 69/113/61 70/115/61 72/116/61 71/114/61
f 66/112/62 68/111/62 72/116/62 70/115/62
f 68/111/63 67/110/63 71/114/63 72/116/63
f 58/96/64 74/117/64 76/118/64 62/97/64
f 65/109/65 66/112/65 70/115/65 69/113/65
f 62/97/66 76/118/66 75/106/66 61/105/66
f 80/119/67 78/120/67 82/121/67 84/122/67
f 76/118/68 74/117/68 78/123/68 80/124/68
f 75/106/69 76/118/69 80/124/69 79/125/69
f 73/107/70 75/106/70 79/125/70 77/126/70
f 74/117/71 73/107/71 77/126/71 78/123/71
f 82/121/72 81/127/72 83/128/72 84/122/72
f 77/129/73 79/130/73 83/128/73 81/127/73
f 78/120/74 77/129/74 81/127/74 82/121/74
f 79/130/75 80/119/75 84/122/75 83/128/75
f 22/43/76 21/32/76 25/40/76 26/45/76
f 57/101/77 73/107/77 74/117/77 58/96/77
f 57/101/78 95/86/78 97/104/78 61/105/78
f 59/85/79 60/102/79 66/112/79 65/109/79
f 56/100/80 94/92/80 96/95/80 60/102/80
f 60/102/80 96/95/80 98/98/80 64/108/80
f 52/99/81 92/89/81 94/92/81 56/100/81
f 53/94/78 93/77/78 95/86/78 57/101/78
f 45/87/82 89/79/82 91/82/82 49/88/82
f 49/93/83 91/74/83 93/77/83 53/94/83
f 18/38/84 88/37/84 90/72/84 48/73/84
f 48/83/85 90/67/85 92/70/85 52/84/85
f 16/28/86 14/27/86 88/37/86 85/22/86
f 13/26/87 15/25/87 86/21/87 87/33/87
f 13/26/88 87/33/88 89/36/88 45/78/88
f 15/25/11 16/28/11 85/22/11 86/21/11
f 62/97/58 61/105/58 97/104/58 98/98/58
f 104/1/1 105/4/1 102/131/1 100/132/1
f 105/4/89 106/6/89 101/133/89 102/131/89
f 106/6/3 103/8/3 99/134/3 101/133/3
f 101/133/90 109/135/90 110/136/90 102/131/90
f 109/135/91 113/137/91 114/138/91 110/136/91
f 103/8/92 104/1/92 100/132/92 99/134/92
f 99/134/93 107/139/93 109/135/93 101/133/93
f 102/131/94 110/136/94 108/140/94 100/132/94
f 113/141/95 117/142/95 118/143/95 114/144/95
f 100/132/96 108/140/96 107/139/96 99/134/96
f 107/139/3 111/145/3 113/137/3 109/135/3
f 110/136/1 114/138/1 112/146/1 108/140/1
f 188/147/97 121/148/97 122/149/97 187/150/97
f 108/140/98 112/146/98 111/145/98 107/139/98
f 111/145/99 115/151/99 117/152/99 113/137/99
f 114/138/100 118/153/100 116/154/100 112/146/100
f 119/155/101 123/156/101 125/157/101 121/158/101
f 189/159/102 191/160/102 149/161/102 119/162/102
f 189/159/103 119/162/103 121/148/103 188/147/103
f 187/150/104 122/149/104 120/163/104 190/164/104
f 125/157/3 123/156/3 127/165/3 129/166/3
f 122/167/105 126/168/105 124/169/105 120/170/105
f 121/158/106 125/157/106 126/168/106 122/167/106
f 112/146/107 116/154/107 115/151/107 111/145/107
f 124/169/1 126/168/1 130/171/1 128/172/1
f 120/170/108 124/169/108 123/156/108 119/155/108
f 126/168/109 125/157/109 129/166/109 130/171/109
f 127/165/3 131/173/3 133/174/3 129/166/3
f 133/174/110 137/175/110 138/176/110 134/177/110
f 130/171/1 134/177/1 132/178/1 128/172/1
f 129/166/111 133/174/111 134/177/111 130/171/111
f 135/179/112 136/180/112 140/181/112 139/182/112
f 128/172/113 132/178/113 131/173/113 127/165/113
f 131/173/114 135/179/114 137/175/114 133/174/114
f 134/177/115 138/176/115 136/180/115 132/178/115
f 138/176/116 137/175/116 141/183/116 142/184/116
f 137/175/117 135/179/117 139/182/117 141/183/117
f 138/176/118 142/184/118 140/181/118 136/180/118
f 141/183/119 145/185/119 146/186/119 142/184/119
f 143/187/120 113/188/120 117/189/120 145/185/120
f 132/178/121 136/180/121 135/179/121 131/173/121
f 139/182/36 143/187/36 145/185/36 141/183/36
f 142/184/37 146/186/37 144/190/37 140/181/37
f 146/186/122 118/191/122 114/192/122 144/190/122
f 145/185/123 117/189/123 118/191/123 146/186/123
f 144/190/124 114/192/124 113/188/124 143/187/124
f 192/193/125 194/194/125 152/195/125 148/196/125
f 140/181/126 144/190/126 143/187/126 139/182/126
f 190/164/127 192/197/127 148/198/127 116/154/127
f 119/162/128 149/161/128 150/199/128 120/163/128
f 193/200/129 195/201/129 157/202/129 153/203/129
f 116/154/130 148/198/130 147/204/130 115/151/130
f 191/205/131 193/206/131 153/207/131 149/208/131
f 149/208/132 153/207/132 154/209/132 150/210/132
f 195/201/133 197/211/133 161/212/133 157/202/133
f 148/196/134 152/195/134 151/213/134 147/214/134
f 194/215/135 196/216/135 156/217/135 152/218/135
f 152/218/136 156/217/136 155/219/136 151/220/136
f 198/221/137 200/222/137 164/223/137 160/224/137
f 153/203/138 157/202/138 158/225/138 154/226/138
f 196/216/137 198/221/137 160/224/137 156/217/137
f 156/217/139 160/224/139 159/227/139 155/219/139
f 157/202/140 161/212/140 162/228/140 158/225/140
f 197/211/133 199/229/133 165/230/133 161/212/133
f 159/227/141 175/231/141 177/232/141 163/233/141
f 200/222/142 166/234/142 165/230/142 199/229/142
f 161/212/3 165/230/3 169/235/3 167/236/3
f 166/234/1 162/228/1 168/237/1 170/238/1
f 169/235/143 173/239/143 171/240/143 167/236/143
f 165/230/144 166/234/144 170/238/144 169/235/144
f 171/240/145 173/239/145 174/241/145 172/242/145
f 168/237/146 172/242/146 174/241/146 170/238/146
f 170/238/147 174/241/147 173/239/147 169/235/147
f 160/224/148 164/223/148 178/243/148 176/244/148
f 167/236/149 171/240/149 172/242/149 168/237/149
f 164/223/150 163/233/150 177/232/150 178/243/150
f 182/245/151 186/246/151 184/247/151 180/248/151
f 178/243/152 182/249/152 180/250/152 176/244/152
f 177/232/153 181/251/153 182/249/153 178/243/153
f 175/231/154 179/252/154 181/251/154 177/232/154
f 176/244/155 180/250/155 179/252/155 175/231/155
f 184/247/156 186/246/156 185/253/156 183/254/156
f 179/255/157 183/254/157 185/253/157 181/256/157
f 180/248/158 184/247/158 183/254/158 179/255/158
f 181/256/159 185/253/159 186/246/159 182/245/159
f 124/169/160 128/172/160 127/165/160 123/156/160
f 159/227/161 160/224/161 176/244/161 175/231/161
f 159/227/162 163/233/162 199/229/162 197/211/162
f 161/212/163 167/236/163 168/237/163 162/228/163
f 158/225/164 162/228/164 198/221/164 196/216/164
f 162/228/164 166/234/164 200/222/164 198/221/164
f 154/226/165 158/225/165 196/216/165 194/215/165
f 155/219/162 159/227/162 197/211/162 195/201/162
f 147/214/166 151/213/166 193/206/166 191/205/166
f 151/220/167 155/219/167 195/201/167 193/200/167
f 120/163/168 150/199/168 192/197/168 190/164/168
f 150/210/169 154/209/169 194/194/169 192/193/169
f 118/153/170 187/150/170 190/164/170 116/154/170
f 115/151/171 189/159/171 188/147/171 117/152/171
f 115/151/172 147/204/172 191/160/172 189/159/172
f 117/152/97 188/147/97 187/150/97 118/153/97
f 164/223/142 200/222/142 199/229/142 163/233/142
