# Blender v2.82 (sub 7) OBJ File: '45.blend'
# www.blender.org
mtllib 45.mtl
o Weapon45_Cube.001
v -0.103953 0.044130 -0.803063
v -0.103774 0.044130 -1.563834
v -0.103953 -0.044130 -0.803063
v -0.103774 -0.044130 -1.563834
v -0.144378 0.044130 -1.636278
v -0.144378 -0.044130 -1.636278
v -0.107057 -0.025696 -0.543911
v -0.107057 0.025696 -0.543911
v -0.104988 -0.025696 -0.459045
v -0.104988 0.025696 -0.459045
v -0.176346 -0.025696 -0.549933
v -0.176346 0.025696 -0.549933
v -0.126775 -0.025696 -0.449918
v -0.126775 0.025696 -0.449918
v -0.215448 -0.025696 -0.503123
v -0.215448 0.025696 -0.503123
v -0.150353 -0.025696 -0.396897
v -0.150353 0.025696 -0.396897
v -0.239956 -0.011137 -0.478495
v -0.239956 0.011137 -0.478495
v -0.206513 -0.011137 -0.395211
v -0.206513 0.011137 -0.395211
v -0.078295 -0.025696 -0.457192
v -0.078295 0.025696 -0.457192
v -0.092272 -0.025696 -0.401383
v -0.092272 0.025696 -0.401383
v -0.051150 -0.025696 -0.333860
v -0.051150 0.025696 -0.333860
v -0.053306 -0.025696 -0.237741
v -0.053306 0.025696 -0.237741
v -0.164834 -0.025696 -0.300990
v -0.164834 0.025696 -0.300990
v -0.153023 -0.025696 -0.180051
v -0.153023 0.025696 -0.180051
v -0.302924 -0.008345 -0.346541
v -0.302924 0.008345 -0.346541
v -0.377265 -0.008345 -0.414569
v -0.377265 0.008345 -0.414569
v -0.276186 -0.008966 -0.252382
v -0.230862 -0.008966 -0.324057
v -0.276186 0.008966 -0.252382
v -0.230862 0.008966 -0.324057
v -0.053306 -0.025696 -0.207751
v -0.053306 0.025696 -0.207751
v -0.042188 -0.014977 -0.205434
v -0.042188 0.014977 -0.205434
v -0.028173 -0.014977 0.245444
v -0.028173 0.014977 0.245444
v 0.103953 0.044130 -0.803063
v 0.103774 0.044130 -1.563834
v 0.103953 -0.044130 -0.803063
v 0.103774 -0.044130 -1.563834
v -0.000000 0.044130 -1.646050
v -0.000000 -0.044130 -0.921097
v -0.000000 -0.044130 -1.646050
v -0.000000 0.044130 -0.921097
v 0.099668 0.044130 -1.793657
v 0.099668 -0.044130 -1.793657
v -0.000000 0.044130 -1.727981
v -0.000000 -0.044130 -1.727981
v 0.000000 -0.049213 -0.657805
v 0.107057 -0.025696 -0.543911
v 0.107057 0.025696 -0.543911
v 0.000000 0.049213 -0.657805
v 0.000000 -0.046890 -0.542926
v 0.104988 -0.025696 -0.459045
v 0.104988 0.025696 -0.459045
v 0.000000 0.046890 -0.542926
v 0.176346 -0.025696 -0.549933
v 0.176346 0.025696 -0.549933
v 0.126775 -0.025696 -0.449918
v 0.126775 0.025696 -0.449918
v 0.215448 -0.025696 -0.503123
v 0.215448 0.025696 -0.503123
v 0.150353 -0.025696 -0.396897
v 0.150353 0.025696 -0.396897
v 0.240954 -0.011137 -0.495964
v 0.240954 0.011137 -0.495964
v 0.199026 -0.011137 -0.396210
v 0.199026 0.011137 -0.396210
v 0.000000 -0.046890 -0.501744
v 0.078295 -0.025696 -0.457192
v 0.078295 0.025696 -0.457192
v 0.000000 0.046890 -0.501744
v 0.000000 -0.061014 -0.422868
v 0.092272 -0.025696 -0.401383
v 0.092272 0.025696 -0.401383
v 0.000000 0.061014 -0.422868
v 0.000000 -0.025696 -0.326867
v 0.051150 -0.025696 -0.333860
v 0.051150 0.025696 -0.333860
v 0.000000 0.025696 -0.326867
v -0.000000 -0.058134 -0.260470
v 0.053306 -0.025696 -0.237741
v 0.053306 0.025696 -0.237741
v -0.000000 0.058134 -0.260470
v 0.164834 -0.025696 -0.300990
v 0.164834 0.025696 -0.300990
v 0.146986 -0.025696 -0.175738
v 0.146986 0.025696 -0.175738
v 0.304649 -0.008345 -0.363790
v 0.304649 0.008345 -0.363790
v 0.377265 -0.008345 -0.414569
v 0.377265 0.008345 -0.414569
v 0.276186 -0.008966 -0.252382
v 0.230862 -0.008966 -0.324057
v 0.276186 0.008966 -0.252382
v 0.230862 0.008966 -0.324057
v -0.000000 -0.058134 -0.208605
v 0.053306 -0.025696 -0.207751
v 0.053306 0.025696 -0.207751
v -0.000000 0.058134 -0.208605
v -0.000000 -0.033884 -0.205932
v 0.042188 -0.014977 -0.205434
v 0.042188 0.014977 -0.205434
v -0.000000 0.033884 -0.205932
v 0.006280 -0.033884 0.221091
v 0.041298 -0.014977 0.197557
v 0.041298 0.014977 0.197557
v 0.006280 0.033884 0.221091
v -0.229090 0.014103 -1.614001
v -0.229090 -0.014103 -1.614001
v -0.149078 -0.014103 -0.737010
v -0.149078 0.014103 -0.737010
v -0.166472 0.014103 -1.697770
v -0.166472 -0.014103 -1.697770
v 0.046174 0.014103 -1.836359
v 0.046174 -0.014103 -1.836359
v 0.162176 0.014103 -1.633549
v 0.162176 -0.014103 -1.633549
v 0.154986 -0.014103 -0.737010
v 0.154986 0.014103 -0.737010
v 0.221746 0.014103 -1.933901
v 0.221746 -0.014103 -1.933901
v -0.103786 -0.044130 -1.511107
v -0.103786 0.044130 -1.511107
v -0.000000 0.044130 -1.515040
v -0.000000 -0.044130 -1.515040
v 0.103786 -0.044130 -1.511107
v 0.103786 0.044130 -1.511107
v -0.163931 -0.014103 -1.560671
v -0.163931 0.014103 -1.560671
v 0.162194 -0.014103 -1.571413
v 0.162194 0.014103 -1.571413
v -0.065342 -0.014977 0.288730
v -0.065342 0.014977 0.288730
v -0.012865 -0.033884 0.283093
v 0.055081 -0.014977 0.215887
v 0.055081 0.014977 0.215887
v -0.012865 0.033884 0.283093
v 0.003523 -0.033884 0.331238
v -0.029197 -0.014977 0.354551
v -0.029197 0.014977 0.354551
v 0.003523 0.033884 0.331238
v 0.059338 -0.014977 0.266112
v 0.059338 0.014977 0.266112
v -0.006680 -0.014977 0.385937
v -0.039641 -0.014977 0.410454
v -0.039641 0.014977 0.410454
v -0.006680 0.014977 0.385937
v 0.000000 -0.037207 -0.600366
v -0.106023 -0.025696 -0.501478
v -0.106023 0.025696 -0.501478
v 0.000000 0.037207 -0.600366
v -0.153357 -0.025696 -0.479562
v -0.153357 0.025696 -0.479562
v -0.182900 -0.025696 -0.450010
v -0.182900 0.025696 -0.450010
v -0.212504 -0.011137 -0.459563
v -0.212504 0.011137 -0.459563
v 0.106023 -0.025696 -0.501478
v 0.106023 0.025696 -0.501478
v 0.151560 -0.025696 -0.499926
v 0.151560 0.025696 -0.499926
v 0.182900 -0.025696 -0.450010
v 0.182900 0.025696 -0.450010
v 0.219990 -0.011137 -0.446087
v 0.219990 0.011137 -0.446087
v -0.130750 -0.025696 -0.440979
v -0.182938 -0.025696 -0.542042
v -0.182938 0.025696 -0.542042
v -0.130750 0.025696 -0.440979
v -0.158338 0.025696 -0.474580
v -0.158338 -0.025696 -0.474580
v -0.079417 -0.025696 -0.233711
v -0.080918 -0.025696 -0.314177
v -0.079417 0.025696 -0.233711
v -0.080918 0.025696 -0.314177
v -0.041814 0.044006 -0.697046
v -0.000000 0.036828 -0.736800
v -0.041814 -0.044006 -0.697046
v -0.000000 -0.036828 -0.736800
v 0.041814 0.044006 -0.697046
v 0.041814 -0.044006 -0.697046
vt 0.220549 0.547690
vt 0.220546 0.547687
vt 0.220513 0.547673
vt 0.220548 0.547682
vt 0.222334 0.547065
vt 0.222359 0.545063
vt 0.222711 0.544649
vt 0.222684 0.547056
vt 0.453424 0.391214
vt 0.453252 0.390288
vt 0.454013 0.390004
vt 0.453962 0.390960
vt 0.222696 0.541398
vt 0.222666 0.543426
vt 0.222378 0.543070
vt 0.222401 0.541383
vt 0.455633 0.394801
vt 0.453846 0.394911
vt 0.454334 0.394638
vt 0.455124 0.394632
vt 0.455843 0.388459
vt 0.455548 0.389559
vt 0.454808 0.389476
vt 0.455243 0.388665
vt 0.220520 0.547736
vt 0.220555 0.547727
vt 0.220559 0.547750
vt 0.220495 0.547748
vt 0.222698 0.541249
vt 0.222406 0.541011
vt 0.222409 0.540778
vt 0.222816 0.541044
vt 0.222328 0.547507
vt 0.222682 0.547234
vt 0.222816 0.547480
vt 0.222325 0.547783
vt 0.220551 0.547715
vt 0.220532 0.547727
vt 0.220553 0.547712
vt 0.220554 0.547718
vt 0.220476 0.547663
vt 0.220493 0.547757
vt 0.220469 0.547654
vt 0.220517 0.547716
vt 0.220509 0.547683
vt 0.220546 0.547667
vt 0.220503 0.547668
vt 0.220542 0.547640
vt 0.220507 0.547724
vt 0.220495 0.547727
vt 0.220497 0.547715
vt 0.220504 0.547718
vt 0.456275 0.393937
vt 0.456285 0.393942
vt 0.456281 0.393952
vt 0.456270 0.393948
vt 0.220484 0.547680
vt 0.220495 0.547731
vt 0.220508 0.547725
vt 0.456269 0.393956
vt 0.456277 0.393956
vt 0.456275 0.393959
vt 0.456272 0.393958
vt 0.220508 0.547684
vt 0.220516 0.547715
vt 0.220511 0.547714
vt 0.220505 0.547688
vt 0.456269 0.393950
vt 0.456280 0.393953
vt 0.220486 0.547683
vt 0.220493 0.547692
vt 0.220500 0.547689
vt 0.220506 0.547714
vt 0.220501 0.547713
vt 0.220497 0.547693
vt 0.220508 0.547712
vt 0.220503 0.547690
vt 0.275099 0.519080
vt 0.275168 0.519087
vt 0.275169 0.519097
vt 0.275081 0.519105
vt 0.220540 0.547623
vt 0.220562 0.547765
vt 0.275145 0.518936
vt 0.275047 0.518955
vt 0.274477 0.517939
vt 0.274860 0.517045
vt 0.275076 0.518976
vt 0.275146 0.518946
vt 0.220254 0.545723
vt 0.219871 0.546617
vt 0.218425 0.546338
vt 0.219172 0.541876
vt 0.275316 0.520123
vt 0.274964 0.519633
vt 0.433446 0.520550
vt 0.432356 0.516519
vt 0.432732 0.516345
vt 0.433446 0.519953
vt 0.220358 0.548311
vt 0.220710 0.548800
vt 0.220995 0.551874
vt 0.219233 0.548913
vt 0.220135 0.548251
vt 0.219327 0.548515
vt 0.219393 0.547845
vt 0.219728 0.547820
vt 0.219586 0.547665
vt 0.219502 0.547687
vt 0.219515 0.547572
vt 0.219534 0.547613
vt 0.218770 0.546791
vt 0.219306 0.547427
vt 0.219721 0.546736
vt 0.219573 0.547295
vt 0.219513 0.547531
vt 0.219515 0.547571
vt 0.219460 0.547492
vt 0.219534 0.547469
vt 0.432729 0.514759
vt 0.432886 0.515127
vt 0.432886 0.515978
vt 0.432352 0.514586
vt 0.433438 0.510551
vt 0.433439 0.511149
vt 0.433431 0.515458
vt 0.433429 0.515648
vt 0.433448 0.516708
vt 0.433446 0.514395
vt 0.227008 0.550529
vt 0.220412 0.550898
vt 0.221542 0.549536
vt 0.225137 0.548289
vt 0.433432 0.515737
vt 0.433432 0.515370
vt 0.220578 0.547663
vt 0.220551 0.547686
vt 0.221984 0.547047
vt 0.222018 0.544640
vt 0.453358 0.391865
vt 0.453343 0.391625
vt 0.454013 0.391323
vt 0.453932 0.391627
vt 0.222106 0.541391
vt 0.222082 0.543418
vt 0.453436 0.389566
vt 0.453291 0.388241
vt 0.453885 0.388540
vt 0.454251 0.389468
vt 0.455740 0.391110
vt 0.455864 0.391543
vt 0.455145 0.391274
vt 0.455158 0.390890
vt 0.220592 0.547727
vt 0.220617 0.547728
vt 0.222108 0.541241
vt 0.222128 0.540588
vt 0.221986 0.548000
vt 0.221982 0.547225
vt 0.220577 0.547721
vt 0.220555 0.547714
vt 0.220611 0.547644
vt 0.220614 0.547634
vt 0.220621 0.547737
vt 0.220586 0.547673
vt 0.220588 0.547704
vt 0.220586 0.547654
vt 0.220595 0.547711
vt 0.220601 0.547703
vt 0.220606 0.547699
vt 0.220613 0.547714
vt 0.456358 0.393922
vt 0.456363 0.393934
vt 0.456358 0.393942
vt 0.456350 0.393932
vt 0.220609 0.547660
vt 0.456370 0.393941
vt 0.456369 0.393945
vt 0.456365 0.393946
vt 0.456364 0.393944
vt 0.220592 0.547675
vt 0.220593 0.547701
vt 0.220603 0.547675
vt 0.220597 0.547676
vt 0.220600 0.547677
vt 0.220603 0.547697
vt 0.220599 0.547699
vt 0.220593 0.547677
vt 0.220595 0.547698
vt 0.275228 0.519059
vt 0.275253 0.519077
vt 0.275502 0.517808
vt 0.275241 0.518928
vt 0.275220 0.518956
vt 0.222284 0.545288
vt 0.220896 0.546486
vt 0.275510 0.519526
vt 0.434168 0.516350
vt 0.434544 0.516524
vt 0.220903 0.548204
vt 0.222284 0.548616
vt 0.221369 0.547459
vt 0.221725 0.547368
vt 0.221451 0.547255
vt 0.221480 0.547180
vt 0.221488 0.547144
vt 0.221547 0.547242
vt 0.221655 0.546906
vt 0.221333 0.546894
vt 0.221469 0.547105
vt 0.221483 0.547132
vt 0.221516 0.547041
vt 0.221429 0.547045
vt 0.434018 0.515984
vt 0.434017 0.515119
vt 0.434168 0.514752
vt 0.434544 0.514577
vt 0.433459 0.515670
vt 0.433458 0.515433
vt 0.218763 0.547555
vt 0.219414 0.543007
vt 0.219943 0.543392
vt 0.219349 0.547432
vt 0.455258 0.391605
vt 0.455053 0.389936
vt 0.455284 0.388411
vt 0.453882 0.388280
vt 0.454429 0.385201
vt 0.455255 0.385361
vt 0.455866 0.388221
vt 0.455780 0.390177
vt 0.453310 0.387989
vt 0.453904 0.384913
vt 0.455807 0.385164
vt 0.455866 0.391791
vt 0.223189 0.542657
vt 0.225386 0.544375
vt 0.224032 0.544876
vt 0.222977 0.543612
vt 0.220469 0.547239
vt 0.221652 0.548439
vt 0.222710 0.540899
vt 0.227008 0.543159
vt 0.223343 0.545063
vt 0.222927 0.546775
vt 0.220923 0.544081
vt 0.223957 0.547301
vt 0.223557 0.545430
vt 0.223417 0.546348
vt 0.456365 0.393969
vt 0.456367 0.393967
vt 0.456371 0.393968
vt 0.456373 0.393972
vt 0.220598 0.547672
vt 0.220591 0.547666
vt 0.456349 0.393990
vt 0.456360 0.393973
vt 0.456366 0.393980
vt 0.456364 0.393996
vt 0.456320 0.393951
vt 0.456318 0.393936
vt 0.456327 0.393996
vt 0.456326 0.393987
vt 0.456283 0.393983
vt 0.456276 0.393987
vt 0.456278 0.393983
vt 0.456280 0.393981
vt 0.220497 0.547681
vt 0.220497 0.547687
vt 0.456304 0.393996
vt 0.456292 0.394005
vt 0.456280 0.393994
vt 0.456289 0.393984
vt 0.220498 0.547679
vt 0.456288 0.393984
vt 0.456279 0.393993
vt 0.222293 0.544453
vt 0.222365 0.544570
vt 0.222301 0.543593
vt 0.222373 0.543490
vt 0.222439 0.544456
vt 0.222442 0.543596
vn -0.1167 0.9931 -0.0074
vn 0.0000 -1.0000 0.0000
vn -0.2278 0.9074 -0.3531
vn -0.0000 1.0000 -0.0000
vn 0.8257 0.0000 0.5641
vn 0.3540 -0.9345 0.0370
vn -0.2295 -0.9690 -0.0916
vn -0.9200 0.0000 -0.3920
vn -0.1167 -0.9931 -0.0074
vn -0.0693 0.0000 0.9976
vn 0.0866 0.0000 -0.9962
vn -0.2295 0.9690 -0.0916
vn 0.3864 0.0000 0.9223
vn -0.3797 0.8694 0.3162
vn -0.7675 0.0000 -0.6411
vn 0.9137 0.0000 0.4063
vn -0.9957 0.0000 0.0927
vn 0.0300 0.0000 0.9995
vn -0.3285 -0.9383 0.1078
vn -0.7088 0.0000 -0.7054
vn -0.3580 -0.9240 -0.1341
vn -0.1584 0.9825 0.0982
vn -0.1584 -0.9825 0.0982
vn -0.2067 0.9443 0.2559
vn -0.9700 0.0000 -0.2429
vn -0.3580 0.9240 -0.1341
vn -0.3171 0.9292 -0.1897
vn -0.2067 -0.9443 0.2559
vn -0.8541 0.0000 0.5201
vn -0.5198 0.8543 0.0000
vn -0.3171 -0.9292 -0.1897
vn -0.0002 -1.0000 -0.0065
vn 0.5891 0.0000 0.8081
vn -0.1552 0.0000 -0.9879
vn 0.6751 -0.0000 -0.7377
vn -0.8487 0.0000 0.5289
vn -0.0002 1.0000 -0.0065
vn 0.2978 -0.0000 -0.9546
vn 0.3298 0.0000 -0.9440
vn -0.1604 0.9867 -0.0279
vn -0.5064 0.0000 0.8623
vn -0.1604 -0.9867 -0.0279
vn -0.2041 0.0000 0.9790
vn -0.5198 -0.8543 0.0000
vn -1.0000 0.0000 0.0000
vn -0.9995 0.0000 0.0311
vn -0.0530 0.1246 0.9908
vn -0.0530 -0.1246 0.9908
vn -0.4564 -0.8556 -0.2441
vn -0.4398 0.8980 0.0102
vn -0.4398 -0.8980 0.0102
vn 0.1167 0.9931 -0.0074
vn -0.4205 0.8697 0.2583
vn 0.3540 0.9345 0.0370
vn -0.3450 -0.9373 -0.0486
vn 0.2295 -0.9690 -0.0916
vn 0.9200 0.0000 -0.3920
vn 0.1167 -0.9931 -0.0074
vn 0.0693 0.0000 0.9976
vn -0.0866 0.0000 -0.9962
vn 0.2295 0.9690 -0.0916
vn -0.3864 0.0000 0.9223
vn 0.3840 0.9015 0.1995
vn 0.7675 0.0000 -0.6411
vn -0.9137 0.0000 0.4063
vn 0.9219 0.0000 0.3875
vn -0.0141 0.0000 0.9999
vn 0.3095 -0.9372 0.1608
vn 0.2702 0.0000 -0.9628
vn 0.3580 -0.9240 -0.1341
vn 0.1584 0.9825 0.0982
vn 0.1584 -0.9825 0.0982
vn 0.2067 0.9443 0.2559
vn 0.9700 0.0000 -0.2429
vn 0.3580 0.9240 -0.1341
vn 0.3171 0.9292 -0.1897
vn 0.2067 -0.9443 0.2559
vn 0.8541 0.0000 0.5201
vn 0.5198 0.8543 0.0000
vn 0.3171 -0.9292 -0.1897
vn 0.0009 -1.0000 -0.0053
vn -0.5519 0.0000 0.8339
vn 0.2778 0.0000 -0.9607
vn -0.5731 0.0000 -0.8195
vn 0.8487 0.0000 0.5289
vn 0.0009 1.0000 -0.0053
vn -0.4741 -0.0000 -0.8805
vn -0.3298 0.0000 -0.9440
vn 0.1579 0.9872 -0.0220
vn 0.5102 0.0000 0.8601
vn 0.1579 -0.9872 -0.0220
vn 0.2041 0.0000 0.9790
vn 0.5198 -0.8543 0.0000
vn 1.0000 0.0000 0.0000
vn 1.0000 0.0000 0.0022
vn 0.0530 0.1246 0.9908
vn 0.0530 -0.1246 0.9908
vn 0.7993 0.0000 -0.6010
vn 0.4392 0.8984 -0.0029
vn 0.4392 -0.8984 -0.0029
vn -0.9998 0.0000 0.0180
vn -0.8010 0.0000 -0.5987
vn -0.5460 0.0000 -0.8378
vn 1.0000 0.0000 0.0086
vn 0.9809 0.0000 0.1945
vn -0.4856 0.0000 -0.8742
vn 0.4571 -0.8894 -0.0001
vn -0.2278 -0.9074 -0.3531
vn 0.4810 0.8767 0.0022
vn -0.2166 0.9054 -0.3653
vn -0.3450 0.9373 -0.0486
vn -0.2166 -0.9054 -0.3653
vn -0.7913 0.0000 0.6114
vn -0.4949 -0.8689 0.0047
vn -0.4205 -0.8697 0.2583
vn 0.4571 0.8894 -0.0001
vn 0.4810 -0.8767 0.0022
vn 1.0000 0.0000 -0.0003
vn -0.6334 0.0000 0.7739
vn -0.4949 0.8689 0.0047
vn -0.3535 0.9211 0.1629
vn 0.2418 -0.9690 -0.0507
vn 0.3634 0.9313 0.0243
vn -0.7587 0.0000 -0.6515
vn 0.3634 -0.9313 0.0243
vn -0.4564 0.8556 -0.2441
vn 0.9830 0.0000 0.1834
vn 0.7593 0.0000 0.6507
vn -0.3535 -0.9211 0.1629
vn 0.9964 0.0000 -0.0845
vn -0.8765 0.0000 0.4813
vn 0.2418 0.9690 -0.0507
vn 0.5968 0.0000 0.8024
vn -0.9830 0.0000 -0.1837
vn -0.1842 0.9740 0.1321
vn -0.1842 -0.9740 0.1321
vn 0.3840 -0.9015 0.1995
vn 0.3095 0.9372 0.1608
vn 0.0435 0.9919 0.1197
vn 0.0435 -0.9919 0.1197
vn -0.3797 -0.8694 0.3162
vn -0.5677 0.0000 0.8232
vn -0.3285 0.9383 0.1078
vn -0.0435 0.9919 0.1197
vn -0.0435 -0.9919 0.1197
vn -0.5516 0.0000 -0.8341
vn 0.1525 0.0000 0.9883
vn -0.0623 -0.9980 0.0122
vn 0.8627 0.0000 0.5057
vn -0.0623 0.9980 0.0122
vn 0.0623 -0.9980 0.0122
vn -0.8627 0.0000 0.5057
vn 0.0623 0.9980 0.0122
usemtl Material.001
s off
f 190/1/1 189/2/1 8/3/1 64/4/1
f 138/5/2 54/6/2 3/7/2 135/8/2
f 5/9/3 59/10/3 127/11/3 125/12/3
f 136/13/4 1/14/4 56/15/4 137/16/4
f 3/17/5 1/18/5 124/19/5 123/20/5
f 52/21/6 58/22/6 134/23/6 130/24/6
f 162/25/7 161/26/7 65/27/7 9/28/7
f 2/29/4 53/30/4 59/31/4 5/32/4
f 55/33/2 4/34/2 6/35/2 60/36/2
f 189/2/8 191/37/8 7/38/8 8/3/8
f 191/37/9 192/39/9 61/40/9 7/38/9
f 10/41/10 9/28/10 23/42/10 24/43/10
f 8/3/11 7/38/11 11/44/11 12/45/11
f 164/46/12 163/47/12 10/41/12 68/48/12
f 184/49/2 179/50/2 17/51/2 167/52/2
f 163/53/4 8/54/4 12/55/4 166/56/4
f 9/28/13 10/41/13 14/57/13 13/58/13
f 162/25/2 9/28/2 13/58/2 165/59/2
f 168/60/14 16/61/14 20/62/14 170/63/14
f 181/64/15 180/65/15 15/66/15 16/67/15
f 183/68/4 181/69/4 16/61/4 168/60/4
f 179/50/16 182/70/16 18/71/16 17/51/16
f 170/72/17 169/73/17 21/74/17 22/75/17
f 17/51/18 18/71/18 22/75/18 21/74/18
f 167/52/19 17/51/19 21/74/19 169/73/19
f 16/67/20 15/66/20 19/76/20 20/77/20
f 23/78/21 81/79/21 85/80/21 25/81/21
f 68/48/22 10/41/22 24/43/22 84/82/22
f 9/28/23 65/27/23 81/83/23 23/42/23
f 88/84/24 26/85/24 28/86/24 92/87/24
f 24/88/25 23/78/25 25/81/25 26/85/25
f 84/89/26 24/88/26 26/85/26 88/84/26
f 92/90/27 28/91/27 30/92/27 96/93/27
f 25/81/28 85/80/28 89/94/28 27/95/28
f 26/85/29 25/81/29 27/95/29 28/86/29
f 96/96/30 30/97/30 44/98/30 112/99/30
f 27/100/31 89/101/31 93/102/31 29/103/31
f 186/104/2 185/105/2 33/106/2 31/107/2
f 40/108/32 39/109/32 37/110/32 35/111/32
f 185/105/33 187/112/33 34/113/33 33/106/33
f 188/114/34 186/104/34 31/107/34 32/115/34
f 187/112/4 188/114/4 32/115/4 34/113/4
f 36/116/35 35/111/35 37/110/35 38/117/35
f 39/109/36 41/118/36 38/117/36 37/110/36
f 41/118/37 42/119/37 36/116/37 38/117/37
f 42/119/38 40/108/38 35/111/38 36/116/38
f 32/115/39 31/107/39 40/108/39 42/119/39
f 34/113/40 32/115/40 42/119/40 41/118/40
f 33/106/41 34/113/41 41/118/41 39/109/41
f 31/107/42 33/106/42 39/109/42 40/108/42
f 44/98/43 43/120/43 45/121/43 46/122/43
f 29/123/44 93/124/44 109/125/44 43/120/44
f 30/97/45 29/123/45 43/120/45 44/98/45
f 46/122/46 45/121/46 47/126/46 48/127/46
f 112/99/47 44/98/47 46/122/47 116/128/47
f 43/120/48 109/125/48 113/129/48 45/121/48
f 47/130/49 117/131/49 147/132/49 145/133/49
f 116/128/50 46/122/50 48/127/50 120/134/50
f 45/121/51 113/129/51 117/135/51 47/126/51
f 190/1/52 64/4/52 63/136/52 193/137/52
f 138/5/2 139/138/2 51/139/2 54/6/2
f 136/140/53 2/141/53 121/142/53 142/143/53
f 140/144/4 137/16/4 56/15/4 49/145/4
f 57/146/54 50/147/54 129/148/54 133/149/54
f 6/150/55 4/151/55 122/152/55 126/153/55
f 171/154/56 66/155/56 65/27/56 161/26/56
f 50/156/4 57/157/4 59/31/4 53/30/4
f 55/33/2 60/36/2 58/158/2 52/159/2
f 193/137/57 63/136/57 62/160/57 194/161/57
f 194/161/58 62/160/58 61/40/58 192/39/58
f 67/162/59 83/163/59 82/164/59 66/155/59
f 63/136/60 70/165/60 69/166/60 62/160/60
f 164/46/61 68/48/61 67/162/61 172/167/61
f 173/168/2 175/169/2 75/170/2 71/171/2
f 172/172/4 174/173/4 70/174/4 63/175/4
f 66/155/62 71/171/62 72/176/62 67/162/62
f 171/154/2 173/168/2 71/171/2 66/155/2
f 176/177/63 178/178/63 78/179/63 74/180/63
f 70/165/64 74/181/64 73/182/64 69/166/64
f 174/173/4 176/177/4 74/180/4 70/174/4
f 71/171/65 75/170/65 76/183/65 72/176/65
f 178/184/66 80/185/66 79/186/66 177/187/66
f 75/170/67 79/186/67 80/185/67 76/183/67
f 175/169/68 177/187/68 79/186/68 75/170/68
f 74/181/69 78/188/69 77/189/69 73/182/69
f 82/190/70 86/191/70 85/80/70 81/79/70
f 68/48/71 84/82/71 83/163/71 67/162/71
f 66/155/72 82/164/72 81/83/72 65/27/72
f 88/84/73 92/87/73 91/192/73 87/193/73
f 83/194/74 87/193/74 86/191/74 82/190/74
f 84/89/75 88/84/75 87/193/75 83/194/75
f 92/90/76 96/93/76 95/195/76 91/196/76
f 86/191/77 90/197/77 89/94/77 85/80/77
f 87/193/78 91/192/78 90/197/78 86/191/78
f 96/96/79 112/99/79 111/198/79 95/199/79
f 90/200/80 94/201/80 93/102/80 89/101/80
f 90/200/2 97/202/2 99/203/2 94/201/2
f 106/204/81 101/205/81 103/206/81 105/207/81
f 94/201/82 99/203/82 100/208/82 95/195/82
f 91/196/83 98/209/83 97/202/83 90/200/83
f 95/195/4 100/208/4 98/209/4 91/196/4
f 102/210/84 104/211/84 103/206/84 101/205/84
f 105/207/85 103/206/85 104/211/85 107/212/85
f 107/212/86 104/211/86 102/210/86 108/213/86
f 108/213/87 102/210/87 101/205/87 106/204/87
f 98/209/88 108/213/88 106/204/88 97/202/88
f 100/208/89 107/212/89 108/213/89 98/209/89
f 99/203/90 105/207/90 107/212/90 100/208/90
f 97/202/91 106/204/91 105/207/91 99/203/91
f 111/198/92 115/214/92 114/215/92 110/216/92
f 94/217/93 110/216/93 109/125/93 93/124/93
f 95/199/94 111/198/94 110/216/94 94/217/94
f 115/214/95 119/218/95 118/219/95 114/215/95
f 112/99/96 116/128/96 115/214/96 111/198/96
f 110/216/97 114/215/97 113/129/97 109/125/97
f 118/220/98 119/221/98 149/222/98 148/223/98
f 116/128/99 120/134/99 119/218/99 115/214/99
f 114/215/100 118/219/100 117/135/100 113/129/100
f 141/224/101 123/20/101 124/19/101 142/143/101
f 122/152/102 121/142/102 125/12/102 126/153/102
f 125/12/103 127/11/103 128/225/103 126/153/103
f 143/226/104 144/227/104 132/228/104 131/229/104
f 130/24/105 134/23/105 133/149/105 129/148/105
f 133/149/106 134/23/106 128/225/106 127/11/106
f 139/230/107 52/21/107 130/24/107 143/226/107
f 60/231/108 6/150/108 126/153/108 128/225/108
f 140/232/109 49/233/109 132/228/109 144/227/109
f 59/10/110 57/146/110 133/149/110 127/11/110
f 2/141/111 5/9/111 125/12/111 121/142/111
f 58/22/112 60/231/112 128/225/112 134/23/112
f 49/233/113 51/234/113 131/229/113 132/228/113
f 135/235/114 3/17/114 123/20/114 141/224/114
f 4/151/115 135/235/115 141/224/115 122/152/115
f 50/147/116 140/232/116 144/227/116 129/148/116
f 51/234/117 139/230/117 143/226/117 131/229/117
f 130/24/118 129/148/118 144/227/118 143/226/118
f 122/152/119 141/224/119 142/143/119 121/142/119
f 50/156/4 53/30/4 137/16/4 140/144/4
f 1/18/120 136/140/120 142/143/120 124/19/120
f 55/33/2 52/159/2 139/138/2 138/5/2
f 2/29/4 136/13/4 137/16/4 53/30/4
f 55/33/2 138/5/2 135/8/2 4/34/2
f 150/236/121 146/237/121 153/238/121 154/239/121
f 147/132/122 148/223/122 155/240/122 151/241/122
f 119/221/123 120/242/123 150/236/123 149/222/123
f 48/243/124 47/130/124 145/133/124 146/237/124
f 117/131/125 118/220/125 148/223/125 147/132/125
f 120/242/126 48/243/126 146/237/126 150/236/126
f 151/241/127 154/239/127 160/244/127 157/245/127
f 154/239/128 151/241/128 155/240/128 156/246/128
f 145/133/129 147/132/129 151/241/129 152/247/129
f 148/223/130 149/222/130 156/246/130 155/240/130
f 146/237/131 145/133/131 152/247/131 153/238/131
f 149/222/132 150/236/132 154/239/132 156/246/132
f 160/244/133 159/248/133 158/249/133 157/245/133
f 153/238/134 152/247/134 158/249/134 159/248/134
f 154/239/135 153/238/135 159/248/135 160/244/135
f 152/247/136 151/241/136 157/245/136 158/249/136
f 73/250/137 77/251/137 177/252/137 175/253/137
f 78/179/66 178/178/66 177/252/66 77/251/66
f 72/176/4 76/183/4 176/254/4 174/255/4
f 76/183/138 80/185/138 178/184/138 176/254/138
f 62/256/2 69/257/2 173/258/2 171/259/2
f 67/162/4 72/176/4 174/255/4 172/167/4
f 69/257/2 73/250/2 175/253/2 173/258/2
f 64/260/139 164/261/139 172/172/139 63/175/139
f 62/256/140 171/259/140 161/262/140 61/263/140
f 15/264/141 167/265/141 169/266/141 19/267/141
f 20/62/142 19/267/142 169/266/142 170/63/142
f 182/70/4 183/268/4 168/269/4 18/71/4
f 18/71/143 168/269/143 170/72/143 22/75/143
f 7/270/2 162/271/2 165/272/2 11/273/2
f 10/41/4 163/47/4 166/274/4 14/57/4
f 180/275/2 184/276/2 167/265/2 15/264/2
f 64/260/144 8/54/144 163/53/144 164/261/144
f 7/270/145 61/263/145 161/262/145 162/271/145
f 11/273/2 165/272/2 184/276/2 180/275/2
f 14/57/4 166/274/4 183/268/4 182/70/4
f 13/58/16 14/57/16 182/70/16 179/50/16
f 166/56/4 12/55/4 181/69/4 183/68/4
f 12/45/15 11/44/15 180/65/15 181/64/15
f 165/59/2 13/58/2 179/50/2 184/49/2
f 30/92/4 28/91/4 188/114/4 187/112/4
f 28/91/146 27/100/146 186/104/146 188/114/146
f 29/103/147 30/92/147 187/112/147 185/105/147
f 27/100/2 29/103/2 185/105/2 186/104/2
f 51/139/148 194/277/148 192/278/148 54/6/148
f 49/145/149 193/279/149 194/277/149 51/139/149
f 56/15/150 190/280/150 193/279/150 49/145/150
f 3/7/151 54/6/151 192/278/151 191/281/151
f 1/14/152 3/7/152 191/281/152 189/282/152
f 56/15/153 1/14/153 189/282/153 190/280/153
